<?xml version="1.0" standalone="no"?>
<!DOCTYPE svg PUBLIC "-//W3C//DTD SVG 1.1//EN" "http://www.w3.org/Graphics/SVG/1.1/DTD/svg11.dtd" >
<svg xmlns="http://www.w3.org/2000/svg">
<metadata>Generated by IcoMoon</metadata>
<defs>
<font id="icomoon" horiz-adv-x="1024">
<font-face units-per-em="1024" ascent="960" descent="-64" />
<missing-glyph horiz-adv-x="1024" />
<glyph unicode="&#x20;" horiz-adv-x="512" d="" />
<glyph unicode="&#xe001;" glyph-name="amazon" d="M587.192 504.86v29.227c-97.723 0-200.938-20.916-200.938-135.965 0-58.498 30.328-97.959 82.139-97.959 37.916 0 72.049 23.354 93.498 61.396 26.555 46.771 25.301 90.656 25.301 143.301zM723.402 175.489c-8.961-8.010-21.869-8.564-31.941-3.133-44.893 37.279-52.926 54.525-77.438 90.018-74.139-75.535-126.67-98.188-222.71-98.188-113.742 0-202.18 70.17-202.18 210.538 0 109.666 59.375 184.225 144.045 220.79 73.295 32.172 175.672 38.008 254.012 46.793v17.549c0 32.146 2.506 70.182-16.436 97.957-16.434 24.859-48.025 35.084-75.811 35.084-51.52 0-97.34-26.393-108.576-81.104-2.355-12.188-11.223-24.221-23.488-24.85l-130.918 14.184c-11.049 2.482-23.354 11.363-20.148 28.238 30.072 158.842 173.523 206.836 302.074 206.836 65.713 0 151.645-17.549 203.458-67.26 65.715-61.42 59.4-143.301 59.4-232.496v-210.448c0-63.299 26.275-91.086 50.975-125.229 8.633-12.256 10.584-26.881-0.418-35.84-27.602-23.143-76.648-65.738-103.623-89.74zM908.522 138.046c18.918 8.031 34.771-12.441 16.273-26.137-111.908-82.564-274.116-126.508-413.806-126.508-195.773 0-372.060 72.379-505.464 192.85-10.469 9.471-1.137 22.4 11.467 15.064 143.916-83.773 321.898-134.191 505.764-134.191 124 0 260.326 25.719 385.768 78.922zM941.924 37.489c13.51 33.752 43.732 109.238 29.434 127.574-14.322 18.338-94.613 8.707-130.686 4.367-10.912-1.301-12.629 8.217-2.787 15.18 64.066 44.963 169.012 31.986 181.197 16.922 12.305-15.203-3.201-120.402-63.23-170.635-9.238-7.752-18.014-3.619-13.928 6.592z" />
<glyph unicode="&#xe002;" glyph-name="linux" d="M485.86 699.89c4.582 0 8.908-1.205 12.816-3.451 3.91-2.197 7.42-5.465 10.381-9.473 2.91-4.025 5.305-8.85 6.943-14.273 1.646-5.406 2.545-11.395 2.545-17.766 0-6.348-0.906-12.344-2.57-17.783-1.662-5.488-4.068-10.377-7.037-14.461-2.977-4.094-6.553-7.395-10.514-9.684-3.959-2.287-8.332-3.535-12.975-3.535-4.654 0-9.063 1.248-13.041 3.535-3.975 2.289-7.537 5.59-10.496 9.684-2.951 4.084-5.322 8.973-6.92 14.461-1.613 5.439-2.461 11.436-2.42 17.783 0.076 6.371 1.023 12.359 2.719 17.766 1.682 5.424 4.127 10.248 7.121 14.273 2.994 4.008 6.537 7.277 10.496 9.473 3.979 2.246 8.352 3.451 12.951 3.451zM540.928 693.768c4.375 0 8.535-1.131 12.344-3.143 3.809-2.063 7.244-4.965 10.146-8.633 2.91-3.627 5.273-7.959 6.92-12.775 1.646-4.809 2.594-10.131 2.645-15.693 0.051-5.59-0.789-10.973-2.379-15.871-1.58-4.865-3.873-9.273-6.744-13.033-2.854-3.691-6.279-6.721-10.090-8.799-3.826-2.096-8.018-3.26-12.426-3.26-4.475 0-8.715 1.164-12.592 3.26-3.859 2.078-7.318 5.090-10.254 8.799-2.902 3.699-5.25 8.133-6.889 12.982-1.637 4.867-2.535 10.189-2.543 15.77 0 5.59 0.887 10.938 2.494 15.777 1.605 4.832 3.936 9.182 6.813 12.842 2.877 3.627 6.313 6.57 10.129 8.633 3.811 2.014 8.002 3.145 12.426 3.145zM242.346 197.415c3.885 0.793 7.818 1.498 11.744 2.098 3.941 0.625 7.885 1.123 11.844 1.555s7.941 0.748 11.893 0.965c3.977 0.232 7.936 0.373 11.875 0.373 34.832 0 64.793-3.518 90.127-9.645 25.391-6.125 46.191-14.904 62.668-25.453 16.51-10.58 28.67-22.93 36.703-36.211 8.068-13.314 11.961-27.562 11.93-41.809-0.020-2.463-0.119-4.793-0.301-7.020-0.199-2.213-0.482-4.361-0.865-6.389-0.381-1.996-0.857-3.926-1.412-5.756-0.566-1.828-1.232-3.551-1.98-5.189 2.045-0.133 4.109-0.232 6.172-0.332 2.043-0.084 4.107-0.166 6.17-0.201 2.047-0.066 4.125-0.1 6.164-0.117 2.070-0.035 4.117-0.035 6.18-0.035h4.674c1.873 0 3.742 0 5.615 0.035 1.855 0 3.732 0.049 5.598 0.084 1.848 0.047 3.693 0.1 5.539 0.166 1.865 0.066 3.709 0.141 5.523 0.232-0.766 1.629-1.432 3.344-2.014 5.189-0.582 1.83-1.080 3.744-1.496 5.789-0.398 2.031-0.699 4.178-0.924 6.439-0.207 2.246-0.324 4.607-0.324 7.104-0.033 14.246 3.869 28.494 11.928 41.809 8.035 13.283 20.209 25.631 36.744 36.211 16.467 10.547 37.279 19.328 62.688 25.453 25.375 6.127 55.35 9.645 90.221 9.645 4.186 0 8.361-0.139 12.535-0.406 4.176-0.232 8.334-0.592 12.475-1.063 4.158-0.5 8.285-1.066 12.377-1.775 4.109-0.721 8.176-1.521 12.211-2.436 3.74 7.885 7.002 16.119 9.779 24.703 2.779 8.584 5.041 17.488 6.787 26.773 1.746 9.281 2.979 18.887 3.643 28.834 0.682 9.947 0.807 20.229 0.367 30.848-0.949 23.131-4.791 48.332-11.762 73.881-6.92 25.391-16.916 51.117-30.221 75.602-13.225 24.32-29.727 47.457-49.744 67.834-19.912 20.244-43.324 37.842-70.57 51.283 10.543 2.363 20.393 6.080 29.176 10.912 8.766 4.824 16.5 10.697 22.879 17.424 6.348 6.689 11.354 14.23 14.697 22.314 3.326 8.084 5.016 16.734 4.758 25.684-0.334 10.828-3.461 21.092-8.824 30.424-5.35 9.283-12.934 17.648-22.166 24.652-9.232 6.986-20.125 12.641-32.154 16.535-12.010 3.891-25.15 6.045-38.873 6.045-11.959 0-23.42-1.639-34.018-4.65-10.621-2.975-20.4-7.352-28.984-12.805-8.609-5.506-16.010-12.076-21.867-19.512-5.871-7.438-10.197-15.721-12.592-24.586-1.197 13.238-4.707 25.715-10.066 36.977-5.34 11.227-12.516 21.225-21.125 29.609-8.566 8.342-18.563 15.021-29.559 19.66-10.979 4.592-22.961 7.137-35.564 7.137h-0.246c-13.375 0-26.184-2.846-37.859-8.035-11.717-5.184-22.348-12.717-31.373-22.008-9.033-9.33-16.467-20.512-21.74-32.918-5.307-12.477-8.434-26.248-8.85-40.705v-0.166c-0.285-9.682 0.691-19.129 2.762-28.113 2.063-9.016 5.24-17.582 9.348-25.49 4.143-7.936 9.199-15.229 15.080-21.717 5.877-6.486 12.549-12.16 19.852-16.816-23.986-14.439-44.645-32.271-62.244-52.182-17.699-20.094-32.312-42.35-44.039-65.488-11.803-23.318-20.703-47.555-26.873-71.408-6.221-24.004-9.664-47.6-10.563-69.375-0.432-10.586-0.299-20.801 0.383-30.682 0.697-9.914 1.912-19.461 3.643-28.676 1.762-9.209 4.008-18.064 6.762-26.582 2.748-8.533 5.99-16.717 9.684-24.527zM515.328 886.532c17.65-0.236 35.098-1.764 52.166-4.516 17.066-2.748 33.766-6.729 49.91-11.898 16.16-5.172 31.793-11.529 46.699-18.975 14.93-7.484 29.145-16.098 42.453-25.791 12.275-8.92 23.57-18.615 33.758-28.922 10.221-10.311 19.355-21.256 27.205-32.602 7.885-11.375 14.514-23.172 19.746-35.182 5.238-12.041 9.064-24.336 11.344-36.625 1.43-7.652 2.711-14.791 3.842-21.527 1.148-6.744 2.164-13.057 3.078-19.080 0.914-6.021 1.746-11.693 2.514-17.146 0.766-5.441 1.479-10.629 2.18-15.67 0.756-5.342 1.455-10.396 2.162-15.279 0.713-4.889 1.43-9.607 2.162-14.23 0.746-4.631 1.531-9.184 2.41-13.738 0.881-4.594 1.848-9.133 2.91-13.807 7.129-12.666 14.457-22.855 21.777-31.271 7.316-8.4 14.654-15.004 21.756-20.576 7.088-5.557 13.99-10.064 20.428-14.275 6.469-4.207 12.492-8.117 17.898-12.473 8.283-6.678 17.563-13.543 27.219-20.494 9.656-6.969 19.705-14.072 29.445-21.324 9.781-7.27 19.262-14.654 27.818-22.156 8.566-7.535 16.195-15.211 22.223-23.006 3.543-4.582 6.67-9.33 9.082-13.889 2.43-4.541 4.193-8.949 4.99-12.842 0.807-3.908 0.666-7.318-0.648-9.914-1.314-2.559-3.826-4.357-7.775-4.99-0.508-0.1-1.023-0.131-1.557-0.23-0.531-0.051-1.045-0.102-1.58-0.133-0.531-0.051-1.080-0.066-1.627-0.084-0.535-0.016-1.074-0.047-1.631-0.047-8.25 0-17.5 2.242-27.211 5.754-9.732 3.475-19.947 8.217-30.193 13.24-10.246 5.008-20.494 10.273-30.324 14.82-9.813 4.592-19.227 8.467-27.762 10.646-1.174 0.332-2.371 0.625-3.576 0.875-1.23 0.25-2.445 0.473-3.693 0.654-1.23 0.201-2.486 0.383-3.727 0.5-1.264 0.184-2.512 0.248-3.775 0.342 1.131-5.646 1.93-11.318 2.32-17.26 0.389-5.969 0.398-12.191 0-18.93-0.391-6.752-1.207-14.006-2.438-22.006-1.246-8.035-2.91-16.799-5.041-26.555-0.898-4.293-2.479-10.828-5.023-19.090-2.531-8.268-6.021-18.264-10.762-29.441-4.777-11.236-10.781-23.637-18.332-36.746-7.584-13.139-16.703-26.947-27.697-40.854 13.557-4.549 26.48-10.139 38.342-16.576 11.877-6.453 22.672-13.748 31.971-21.629 9.332-7.92 17.133-16.438 23.004-25.318 5.889-8.859 9.807-18.1 11.354-27.471 0.85-5.189 1.256-10.121 1.256-14.797-0.016-4.689-0.463-9.063-1.33-13.174-0.865-4.092-2.145-7.852-3.844-11.277-1.695-3.451-3.814-6.512-6.354-9.24-2.293-2.496-4.924-4.691-7.852-6.563-2.961-1.887-6.207-3.443-9.764-4.713-3.561-1.266-7.438-2.188-11.594-2.838-4.158-0.625-8.619-0.922-13.367-0.922-13.283 0-26.555 0-39.713-0.027h-39.033c-12.834 0-25.492-0.033-37.834-0.047-12.344-0.037-24.42-0.059-36.113-0.127h-96.346c-6.902 0-13.889 0.141-20.709 0.664-6.82 0.535-13.471 1.434-19.695 2.928-6.236 1.523-12.043 3.66-17.201 6.654-5.123 2.955-9.578 6.811-13.107 11.703-2.063-0.066-4.125-0.166-6.188-0.24-2.070-0.1-4.127-0.184-6.221-0.242-2.080-0.043-4.184-0.115-6.289-0.148-2.096-0.033-4.24-0.066-6.387-0.066h-9c-2.244 0-4.463 0.035-6.67 0.066-2.209 0.035-4.408 0.107-6.57 0.166-2.18 0.082-4.35 0.166-6.504 0.266-2.162 0.133-4.324 0.232-6.469 0.377-3.527-4.965-7.984-8.824-13.125-11.818-5.139-3.020-10.938-5.148-17.176-6.688-6.229-1.521-12.881-2.42-19.703-2.955-6.82-0.523-13.791-0.664-20.709-0.664h-96.33c-11.709 0.066-23.77 0.090-36.121 0.127-12.369 0.016-24.994 0.047-37.834 0.047h-39.059c-13.141 0.027-26.398 0.027-39.688 0.027-4.793 0-9.266 0.297-13.441 0.922-4.166 0.65-8.033 1.572-11.594 2.838-3.541 1.271-6.787 2.826-9.713 4.713-2.928 1.873-5.541 4.066-7.834 6.563-2.529 2.729-4.641 5.791-6.336 9.24-1.699 3.426-2.994 7.186-3.842 11.277-0.867 4.111-1.314 8.484-1.332 13.176-0.018 4.676 0.398 9.607 1.256 14.795 1.521 9.406 5.49 18.707 11.436 27.604 5.93 8.916 13.824 17.451 23.221 25.369 9.396 7.936 20.293 15.238 32.287 21.674 11.943 6.438 24.977 12.010 38.623 16.518-10.943 13.924-20.043 27.713-27.611 40.82-7.518 13.074-13.523 25.484-18.264 36.68-4.742 11.178-8.234 21.158-10.779 29.408-2.529 8.227-4.102 14.764-5.006 19.055-2.129 9.805-3.793 18.588-5.041 26.637-1.24 8.037-2.045 15.305-2.445 22.057-0.4 6.738-0.4 12.975-0.016 18.93 0.398 5.957 1.18 11.637 2.311 17.275-1.379-0.092-2.787-0.191-4.184-0.307-1.406-0.141-2.82-0.332-4.234-0.498-1.398-0.232-2.793-0.482-4.191-0.74-1.381-0.309-2.76-0.6-4.107-0.973-8.551-2.18-17.949-6.053-27.762-10.646-9.83-4.547-20.084-9.813-30.307-14.818-10.238-5.025-20.443-9.768-30.158-13.242-9.715-3.51-18.914-5.754-27.131-5.754-0.547 0-1.082 0.033-1.629 0.047-0.549 0.018-1.074 0.035-1.598 0.084-0.533 0.035-1.064 0.082-1.598 0.133-0.516 0.1-1.021 0.131-1.529 0.232-3.957 0.631-6.471 2.43-7.791 4.99-1.322 2.596-1.439 6.006-0.641 9.912 0.816 3.893 2.555 8.301 4.99 12.844 2.428 4.557 5.539 9.305 9.084 13.887 6.037 7.793 13.672 15.471 22.24 23.006 8.533 7.502 18.031 14.887 27.779 22.156 9.748 7.252 19.744 14.355 29.393 21.324 9.629 6.953 18.877 13.816 27.129 20.494 5.588 4.559 11.877 8.617 18.615 12.99 6.719 4.375 13.922 9.131 21.342 15.088 7.41 5.914 15.045 13.025 22.656 22.174 7.586 9.131 15.154 20.227 22.455 34.182 0.883 4.111 1.672 8.15 2.412 12.227 0.717 4.092 1.398 8.184 2.055 12.375 0.639 4.15 1.271 8.445 1.904 12.834 0.646 4.451 1.281 9.010 1.961 13.783 0.699 5.041 1.414 10.23 2.178 15.67 0.766 5.455 1.598 11.125 2.496 17.148 0.932 6.021 1.93 12.336 3.078 19.080 1.131 6.734 2.404 13.873 3.842 21.525 2.262 12.291 6.107 24.584 11.344 36.625 5.223 12.012 11.846 23.805 19.729 35.184 7.859 11.344 16.967 22.289 27.199 32.6 10.18 10.309 21.48 20.002 33.75 28.922 13.307 9.693 27.514 18.307 42.451 25.791 14.887 7.449 30.506 13.803 46.676 18.975 16.117 5.17 32.801 9.15 49.852 11.898 17.051 2.752 34.451 4.279 52.064 4.516h5.154v-0.008zM514.064 640.722c-0.516-3.207-1.166-6.371-1.947-9.498-0.797-3.094-1.713-6.154-2.746-9.141-1.045-2.982-2.203-5.93-3.475-8.791-1.264-2.861-2.645-5.68-4.119-8.4-9.439-0.531-18.969-2.162-27.984-4.408-9.018-2.209-17.533-5.105-24.984-8.199-7.438-3.127-13.797-6.479-18.496-9.617-4.693-3.125-7.736-6.096-8.5-8.449-0.766-2.297-0.867-4.592-0.516-6.82 0.34-2.211 1.129-4.326 2.143-6.271 0.982-1.945 2.189-3.742 3.377-5.273 1.197-1.531 2.363-2.795 3.277-3.734 0.898-0.988 4.807-4.965 10.246-10.455 5.459-5.506 12.443-12.525 19.496-19.596 7.068-7.051 14.207-14.137 19.91-19.729 5.705-5.588 9.965-9.645 11.277-10.678 1.332-1.082 2.57-2.096 3.826-3.027 1.283-0.932 2.578-1.764 3.992-2.463 1.414-0.73 2.979-1.295 4.742-1.697 1.779-0.381 3.783-0.615 6.123-0.615h2.65c2.338 0 4.334 0.232 6.088 0.615 1.756 0.4 3.293 0.965 4.693 1.697 1.395 0.701 2.67 1.533 3.918 2.463 1.246 0.932 2.479 1.945 3.775 3.027 1.338 1.033 5.623 5.090 11.318 10.678 5.697 5.592 12.834 12.678 19.912 19.729 7.061 7.070 14.045 14.090 19.504 19.596 5.447 5.488 9.365 9.465 10.262 10.455 0.916 0.939 2.072 2.205 3.262 3.734 1.18 1.531 2.402 3.328 3.393 5.273 0.998 1.945 1.795 4.059 2.146 6.271 0.35 2.229 0.248 4.523-0.518 6.82-0.73 2.229-3.428 4.99-7.619 7.918-4.207 2.961-9.881 6.055-16.602 8.998-6.705 2.953-14.42 5.748-22.688 8.051-8.262 2.293-17.051 4.141-25.951 5.131 0.617-0.041 1.213-0.076 1.83-0.102 0.59-0.043 1.213-0.090 1.813-0.107 0.6-0.066 1.213-0.092 1.813-0.133 0.607-0.018 1.213-0.059 1.83-0.107-2.662 2.652-5.109 5.43-7.303 8.291-2.229 2.895-4.209 5.889-5.938 8.967-1.746 3.094-3.211 6.27-4.426 9.545-1.209 3.283-2.158 6.627-2.807 10.053z" />
<glyph unicode="&#xe003;" glyph-name="mobile" d="M723.45 971.8c58.146 0 105.723-47.576 105.721-105.725v-810.55c0-58.148-47.576-105.725-105.723-105.725h-422.894c-58.148 0-105.725 47.576-105.725 105.725v810.55c0 58.148 47.576 105.725 105.725 105.725h422.896zM300.552 901.318c-19.105 0-35.242-16.137-35.242-35.242v-599.104h493.376v599.104c0 19.105-16.139 35.242-35.24 35.242h-422.894zM459.138 108.386c0-29.197 23.668-52.861 52.861-52.861 29.197 0 52.861 23.664 52.861 52.861 0 29.199-23.664 52.863-52.861 52.863-29.193 0-52.861-23.664-52.861-52.863zM300.552 73.146c19.461 0 35.24 15.775 35.24 35.24s-15.781 35.242-35.24 35.242c-19.463 0-35.242-15.777-35.242-35.242s15.779-35.24 35.242-35.24zM723.45 73.146c19.465 0 35.24 15.775 35.24 35.24s-15.775 35.242-35.24 35.242-35.242-15.777-35.242-35.242 15.777-35.24 35.242-35.24z" />
<glyph unicode="&#xe004;" glyph-name="ubuntu" d="M512 971.792c282.222 0 511-228.778 511-510.996 0-282.2-228.786-510.988-511-510.988-282.222 0-511 228.786-511 510.988 0 282.218 228.778 510.996 511 510.996zM626.65 795.82c-18.822-32.611-7.635-74.316 24.979-93.148 32.635-18.84 74.338-7.68 93.168 24.953 18.844 32.633 7.674 74.338-24.953 93.188-32.637 18.826-74.338 7.641-93.193-24.992zM511.992 757.176c-47.158 0-91.75-11.078-131.338-30.676l47.402-84.951c25.504 11.869 53.951 18.539 83.943 18.539 104.104 0 189.512-79.818 198.479-181.615l97.217 1.436c-4.781 75.148-37.617 142.617-88.061 192.227-25.939-9.801-55.898-8.303-81.797 6.627-25.949 14.973-42.219 40.229-46.66 67.641-25.215 6.959-51.748 10.773-79.186 10.773zM164.537 392.576c37.678 0 68.217 30.539 68.217 68.221 0 37.693-30.539 68.238-68.217 68.238-37.701 0-68.24-30.545-68.24-68.238 0-37.68 30.539-68.221 68.24-68.221zM225.020 386.504c18.43-71.426 62.844-132.406 122.561-172.305l49.875 83.562c-51.24 36.045-84.729 95.613-84.729 163.035 0 67.418 33.488 126.984 84.729 163.053l-49.875 83.539c-59.689-39.9-104.104-100.869-122.561-172.275 21.539-17.572 35.324-44.328 35.324-74.316 0-29.963-13.785-56.719-35.324-74.293zM719.844 100.829c32.619 18.822 43.814 60.523 24.967 93.16-18.83 32.611-60.547 43.789-93.168 24.967-32.627-18.846-43.814-60.549-24.967-93.158 18.83-32.637 60.531-43.824 93.168-24.969zM719.644 249.472c50.441 49.621 83.27 117.080 88.061 192.232l-97.242 1.439c-8.949-101.834-94.348-181.621-198.461-181.621-29.992 0-58.439 6.67-83.939 18.539l-47.404-84.949c39.588-19.623 84.18-30.701 131.342-30.701 27.43 0 53.971 3.82 79.178 10.789 4.453 27.422 20.727 52.646 46.66 67.65 25.916 14.955 55.855 16.428 81.807 6.621z" />
<glyph unicode="&#xe005;" glyph-name="drupal" d="M734.542 781.736c31.516-19.688 224.462-137.812 224.462-398.724 0-260.914-205.782-433.21-443.076-433.21-237.298 0-450.936 187.053-450.936 441.068s197.922 372.184 234.328 390.868c43.307 23.66 74.822 35.447 125.021 74.865 23.66 19.688 44.352 47.23 51.25 115.199 35.445-42.342 77.789-91.584 108.256-112.273 49.242-32.479 98.484-45.27 150.693-77.791zM135.627 587.918c7.943-13.793 35.443-15.76 93.59 12.791 58.057 28.547 132.879 74.82 185.088 126.986 52.209 52.207 57.098 73.859 57.098 84.686 0 8.859-8.904 11.83-8.904 15.758 0 1.004 2.008 4.934 8.904 9.822 15.715 11.83 20.691 35.49 20.691 44.352 0 8.338 1.746 27.285-9.691 63.385-0.699 2.443-1.396 4.932-2.096 7.508-8.904-65-28.635-84.686-55.176-105.379-44.266-33.48-87.656-54.129-97.436-59.061-21.562-10.783-90.621-48.762-140.646-104.594-4.541-3.971-8.645-7.857-11.961-11.611-36.494-40.334-47.32-70.893-39.461-84.643zM740.216 42.431c6.896 6.898 4.889 12.791 3.93 16.764-0.961 3.928-4.891 9.822-13.795 2.924-19.732-14.754-63.996-32.477-127.029-32.477-62.947 0-92.547 12.789-112.189 28.549-2.969 1.961-2.008 1.961-7.945 1.961-5.85 0-9.779-2.965-14.756-6.896-4.887-3.928-6.896-13.795 0-20.691 43.305-39.373 115.244-36.406 168.414-31.471 53.168 4.932 98.395 36.404 103.371 41.338zM567.876 132.050c-10.826-9.865-12.746-17.723-6.895-25.623 5.936-7.859 11.871-2.969 28.547 10.824 16.766 13.795 27.588 25.625 62.074 25.625s40.336-12.791 47.232-25.625c6.896-12.789 7.857-14.756 14.754-10.824 7.945 3.928 11.877 9.865 7.945 19.688-3.928 9.863-10.912 27.588-22.699 35.488-11.787 7.857-28.551 8.816-44.264 8.816-15.803 0-24.621 1.006-41.383-5.891-16.764-6.896-34.486-22.656-45.312-32.479zM828.832 124.15c27.588-1.965 42.344 10.826 66.006 45.312 23.572 34.441 33.438 89.576 33.438 120.133 0 30.512-13.795 81.717-63.035 81.717-46.271 0-140.824-96.516-190.064-97.477-58.059-1.004-137.768 114.197-253.012 113.193-90.535-0.961-162.479-72.854-163.436-149.643-0.963-43.305 13.791-74.82 43.301-95.512 19.73-12.791 37.455-21.652 96.561-21.652 97.434 0 221.494 121.092 278.592 119.129 45.312-1.967 116.205-112.232 151.65-115.201z" />
<glyph unicode="&#xe006;" glyph-name="photoshop" d="M852.666 971.8c93.684 0 170.334-76.65 170.336-170.334v-681.334c0-93.684-76.65-170.334-170.334-170.334h-681.334c-93.684 0-170.334 76.65-170.334 170.334v681.334c0 93.684 76.65 170.334 170.334 170.334h681.332zM490.658 451.752c27.514 26.064 41.992 64.432 41.994 110.768 0 45.609-18.82 83.977-47.781 107.871-31.131 26.066-78.914 39.822-144.076 39.822-60.082 0-104.246-4.348-136.102-10.139v-481.44h88.318v183.891c11.586-2.172 26.789-2.902 43.439-2.902 62.984 0 118.734 16.658 154.207 52.129zM675.962 211.388c93.393 0 143.344 46.334 143.346 110.043-0.725 52.131-30.408 84.709-94.117 107.873-44.887 15.926-61.539 26.789-61.539 49.236 0 21.717 17.373 36.92 49.23 36.92 31.127 0 59.365-11.586 74.568-20.27l17.375 62.986c-20.266 10.854-54.293 20.99-93.391 20.99-81.807 0-133.207-48.504-133.207-110.766-0.723-41.268 28.227-78.912 97.010-102.805 43.441-15.203 57.92-27.516 57.92-51.4 0-23.17-17.383-39.098-56.473-39.098-31.854 0-70.229 13.033-90.498 25.342l-17.373-64.434c26.064-14.48 64.432-24.619 107.148-24.619zM443.6 558.9c0-57.195-40.545-89.773-107.148-89.773-18.098 0-32.578 0.725-43.439 3.617v165.068c9.416 2.17 26.791 4.342 51.408 4.342 61.537 0 99.18-28.959 99.18-83.254z" />
<glyph unicode="&#xe007;" glyph-name="indesign" d="M675.606 436.548c1.457-7.236 2.17-15.928 2.17-23.172v-52.846c0-9.416-0.713-18.1-2.893-26.066-8.684-38.377-40.539-62.984-76.74-62.984-56.465 0-88.324 47.057-88.324 111.49 0 65.887 31.859 116.562 89.045 116.562 40.545 0 68.781-28.236 76.742-62.984zM1023 801.466v-681.334c0-93.684-76.65-170.334-170.334-170.334h-681.332c-93.684 0.002-170.334 76.652-170.334 170.336v681.332c0 93.684 76.65 170.334 170.334 170.334h681.334c93.682 0 170.332-76.65 170.332-170.334zM343.322 695.728h-89.047v-487.958h89.047v487.958zM769.728 207.771c-1.457 23.893-2.902 62.982-2.902 99.18v414.844h-89.051v-199.818h-1.447c-15.918 26.062-50.676 46.334-99.18 46.334-84.707 0-158.553-70.227-157.83-188.236 0-108.596 66.605-180.264 150.584-180.264 51.398 0 94.115 24.609 115.115 63.709h1.449l3.617-55.748h79.645z" />
<glyph unicode="&#xe008;" glyph-name="mysql" d="M505.034 399.37h94.537v-22.439h-96.154c-0.975 0-2.266-0.215-3.24-0.215-11.977-1.082-15.537-3.027-17.154-9.932-0.328-1.080-0.328-1.947-0.328-2.811v-15.32c0-1.082 0-1.947 0.328-3.027 1.619-9.066 8.092-13.158 21.688-13.158h40.791c10.039 0 20.393-1.73 28.818-4.973 15.859-6.039 23.959-15.104 23.959-24.816v-24.604c0-11.875-7.125-20.943-21.691-27.627-8.75-4.102-19.752-6.471-31.088-6.471h-96.799v22.439h92.922c1.297 0 2.264 0.215 3.561 0.215 6.471 0.434 11.328 2.162 14.238 4.758 3.244 2.578 4.857 5.605 4.857 7.984v19.637c0 2.152-0.646 4.1-2.586 6.045-3.236 3.883-7.777 5.822-18.457 6.686-0.973 0.217-2.262 0.217-3.559 0.217h-34.971c-3.234 0-6.469 0.217-9.713 0.434-28.811 3.018-45.969 15.969-45.969 31.080v19.637c0 17.266 8.742 27.197 28.814 33.457 6.475 1.939 13.598 2.805 27.195 2.805zM767.134 250.786l33.168-29.934h-39.102l-26.83 24.219-27.014-1.713h-36.014c-6.162 0-12.65 0.865-19.785 2.811-21.408 5.838-31.797 17.082-31.797 35.689v80.020c0 20.334 14.283 32.668 42.5 36.561 2.92 0.434 6.164 0.646 9.082 0.646h63.918c3.242 0 6.162-0.213 9.406-0.646 28.219-3.893 42.492-16.227 42.492-36.561v-80.020c0.002-16.492-6.053-25.324-20.025-31.072zM755.698 359.93c0 0.865 0 1.947-0.322 3.037-1.947 8.648-10.705 13.625-23.68 13.625h-50.934c-14.93 0-24.652-6.488-24.652-16.66v-76.127c0-1.082 0.324-2.162 0.641-3.459 1.945-9.307 10.713-14.496 24.012-14.496h30.582l-28.096 25.367h39.1l24.51-22.123c4.508 2.412 7.484 6.088 8.518 10.818 0.322 1.072 0.322 2.162 0.322 3.244v76.773zM218.562 399.156c10.684-3.236 15.863-9.498 15.865-22.439v-132.74h-33.672v132.957l-52.123-115.906c-6.154-14.033-14.246-18.996-30.762-18.996-16.508 0-24.926 4.963-31.074 18.996l-52.129 115.906v-132.957h-33.666v132.74c0 12.941 5.182 19.203 15.865 22.439 25.574 7.984 43.057 1.080 50.504-16.186l49.533-114.393 51.154 114.393c7.766 17.266 24.928 24.17 50.504 16.186zM389.016 352.546l33.74 0.004c0.158 0-0.033-118.934-0.029-119.441 0.188-29.334-36.396-35.707-53.258-36.207h-106.314v22.656c0.184 0 106.234-0.016 106.5 0 21.67 2.297 19.111 13.068 19.107 16.693v8.824h-71.564c-33.293 0.314-54.498 14.838-54.76 31.555-0.023 1.545 0.721 74.836-0.016 75.568h33.66v-73.256c-0.316-3.979 1.275-13.324 19.721-13.609 9.41-0.148 72.623 0 73.213 0v87.213zM1002.292 265.333l8.131-12.443h-5.555l-7.408 12.244h-4.436v-12.244h-4.758v28.328h11.045c7.012 0 10.654-2.387 10.654-8.143 0-5.164-3.311-7.277-7.674-7.742zM998.116 269.109c3.576 0 6.689 0.334 6.689 4.291 0 3.309-3.445 3.842-6.291 3.842h-5.488v-8.133h5.090zM1023 267.054c0-14.82-11.711-24.809-24.818-24.809-13.092 0-24.807 9.988-24.807 24.809s11.715 24.811 24.807 24.811c13.107 0 24.818-9.988 24.818-24.811zM1017.444 267.054c0 11.254-8.6 19.654-19.262 19.654-10.779 0-19.254-8.4-19.254-19.654 0-11.244 8.475-19.652 19.254-19.652 10.662 0 19.262 8.408 19.262 19.652zM724.124 660.834c2.123-2.055 5.383-3.438 7.059-5.883 1.264-1.834 1.482-3.758 2.947-5.299 0.016-6.271-1.648-10.379-5.299-12.945-0.191-0.195-0.391-0.391-0.59-0.586-1.963 4.115-3.924 8.232-5.881 12.354-2.543 3.645-6.18 6.369-8.242 10.598h-0.59v0.586c3.227 0.709 6.281 1.256 10.596 1.176zM1008.96 358.924c-5.605 4.117-11.311 8.707-17.078 12.359-9.748 6.186-21.061 9.711-31.191 15.893-5.688 3.469-11.162 7.76-16.477 11.77-4.865 3.676-10.313 10.67-13.531 15.893-1.68 2.719-2.014 6.031-4.125 8.242 0.631 4.807 6.754 4.855 10.596 6.469 13.516 5.695 29.326 7.617 50.020 7.070-0.633 5.309-13.475 11.76-17.65 14.705-8.355 5.889-16.982 12.285-25.898 17.662-4.656 2.805-12.723 4.977-17.646 7.055-7.031 2.973-22.49 5.84-26.49 11.184-7.611 10.172-12.859 22.506-18.24 34.723-5.396 12.252-12.234 25.137-17.656 37.664-2.684 6.213-4.008 11.801-7.061 17.658-18.971 36.369-46.707 66.861-80.625 88.275-11.135 7.031-23.395 13.5-37.076 17.658-7.734 2.35-17.016 1.041-25.309 2.943h-5.297c-4.635 1.363-8.518 6.287-12.352 8.83-7.992 5.295-15.877 9.029-25.309 12.947-3.559 1.477-13.057 4.984-16.475 2.354-2.006-0.662-2.906-1.506-3.535-3.533-1.996-3.002-0.166-7.672 1.18-10.59 3.777-8.219 9.244-13.219 14.123-20.012 4.408-6.133 9.775-13.117 12.951-20.012 6.637-14.43 9.582-30.451 15.877-44.725 2.428-5.486 5.92-11.73 9.432-16.479 2.826-3.844 7.875-6.744 9.406-11.773 3.221-5.035-4.715-22.209-6.469-27.66-6.779-21.074-5.35-50.551 2.354-68.855 3.043-7.24 5.922-15.68 14.121-17.652 0.609 0.469 0.15 0.215 1.184 0.586 1.744 14.098 2.352 27.693 7.059 38.84 2.947 6.973 8.553 11.752 12.361 17.656 2.795-1.609 2.779-6.307 4.117-9.418 3.479-8.057 7.063-16.795 11.188-24.717 8.633-16.584 18.105-32.521 28.834-47.078 3.813-5.174 8.934-10.787 13.543-15.305 1.943-1.914 4.34-2.912 5.879-5.289h0.59v-0.6c-7.91 2.703-12.723 10.688-18.83 15.303-11.791 8.898-25.705 22.102-33.549 34.729-3.529 7.059-7.061 14.121-10.596 21.184v0.586c-1.473-1.963-1.016-4.119-1.764-7.063-3.326-12.949-0.734-27.629-12.361-32.365-13.289-5.426-22.961 8.711-27.062 15.297-13.381 21.469-16.852 57.514-7.65 86.518 2.037 6.441 2.246 14.334 5.871 19.42-0.582 4.566-4.289 5.869-6.459 8.828-3.537 4.816-6.623 10.5-9.426 15.887-5.531 10.656-9.246 23.197-13.523 34.725-1.75 4.678-2.096 9.115-4.125 13.537-3.096 6.727-8.627 13.438-12.953 19.418-6.162 8.533-23.377 24.957-16.473 41.787 10.928 26.67 48.793 6.383 63.557-2.939 3.711-2.348 7.818-7.18 11.768-8.828 6.471-0.391 12.953-0.789 19.424-1.178 12.057-2.861 23.469-5.049 32.957-10.592 44.555-26.064 73.324-52.586 100.047-96.52 5.564-9.158 8.482-19.221 12.941-29.426 6.545-14.969 13.809-30.504 21.191-44.73 3.529-6.789 6.023-14.18 10.588-20.012 1.939-2.461 7.078-3.232 10.006-4.707 8.707-4.396 18.865-7.764 27.072-12.951 14.814-9.344 29.193-20.559 42.377-31.775 5.031-4.291 8.324-10.563 12.941-15.303v-2.361c-4.117-1.166-8.234-2.346-12.359-3.527-9.133-2.363-17.043-1.746-25.891-4.119-5.266-1.414-11.951-3.477-17.658-4.117 0.201-0.201 0.4-0.398 0.592-0.598 3.361-9.367 21.385-17.166 29.426-22.949 10.098-7.244 19.586-15.959 27.070-25.889 2.545-2.555 5.107-5.109 7.652-7.652 1.74-2.521 2.223-5.838 4.117-8.242v-0.59c-3.602 1.279-5.463 4.439-8.24 6.479zM841.988 283.247c0-11.859 7.451-16.832 27.193-16.83h88.387v-22.439h-87.736c-3.244 0-6.48 0.217-9.715 0.424-34.639 2.592-51.797 15.545-51.797 38.633v116.338h33.668v-116.125z" />
<glyph unicode="&#xe009;" glyph-name="git" d="M1003.724 413.214l-444.14-444.13c-25.725-25.699-67.389-25.699-93.080 0l-446.222 446.194c-25.707 25.701-25.707 67.379 0 93.105l305.96 305.948 115.865-115.883c-11.879-28.459-6.303-62.467 16.873-85.623 7.574-7.598 16.305-13.27 25.637-17.088v-280.596c-9.332-3.826-18.078-9.531-25.637-17.084-30.594-30.59-30.594-80.143 0-110.766 30.562-30.592 80.148-30.592 110.746 0 30.59 30.623 30.59 80.176 0 110.766-6.221 6.188-13.258 11.111-20.717 14.805l0.008 278.020 105.652-105.652c-11.652-28.348-5.965-62.148 17.043-85.17 30.615-30.607 80.176-30.607 110.783 0 30.59 30.598 30.59 80.158 0 110.744-21.891 21.924-53.512 28.029-80.916 18.586l-113.279 113.277c9.457 27.414 3.309 59.002-18.572 80.908-21.775 21.777-53.092 27.963-80.412 18.738l-117.535 117.539 92.652 92.666c25.713 25.703 67.393 25.703 93.066 0l446.224-446.198c25.699-25.703 25.699-67.395 0-93.105z" />
<glyph unicode="&#xe00a;" glyph-name="bitbucket" d="M512 971.798c223.98 0 465.038-53.199 465.038-170 0-116.805-241.056-169.996-465.038-169.996-23.5 0-47.172 0.619-70.746 1.801v25.018l-369.264 82.752c-16.020 17.836-25.027 37.941-25.027 60.426 0 116.801 241.056 170 465.038 170zM802.022 746.030c80.158 24.68 97.516 50.656 97.516 55.768s-17.357 31.088-97.516 55.768c-76.916 23.682-179.914 36.725-290.022 36.725s-213.106-13.043-290.030-36.725c-80.15-24.68-97.506-50.658-97.506-55.768s17.355-31.088 97.506-55.768c76.924-23.682 179.922-36.729 290.030-36.729s213.106 13.049 290.022 36.729zM519.944 583.944c144.672 0 303.11 19.469 412.564 67.377l-102.826-616.964s-84.551-84.553-295.932-84.553c-295.934 0-338.21 84.553-338.21 84.553l-40.111 240.65 285.826-64.049v374.958c26.43-1.295 52.789-1.973 78.689-1.973zM173.139 593.704c-24.168 16.986-46.859 37.221-67.445 60.070-3.311 3.789-3.246 8.107-1.303 9.98 1.311 1.281 3.402 1.57 5.605 0.77 1.133-0.414 2.246-1.098 3.229-1.998 41.096-37.455 88.738-66.693 137.785-84.561 49.029-17.836 96.682-23.268 137.787-15.738 0.98 0.182 2.098 0.059 3.227-0.355 2.197-0.793 4.293-2.607 5.607-4.846 1.941-3.287 2.008-7.646-1.281-9.025-20.617-7.861-43.299-11.584-67.477-10.98-25.051 0.619-51.24 5.838-77.855 15.516h-0.016c-26.611 9.691-52.812 23.547-77.863 41.168zM171.629 515.352c-13.072 23.531-20.312 44.084-22.129 63.076-0.182 1.881 0.602 3.475 2.131 4.078 0.973 0.396 2.129 0.348 3.326-0.084 0.67-0.238 1.33-0.609 1.975-1.082 11.891-8.883 24.020-16.869 35.076-23.457 2.246-1.354 4.063-3.682 4.822-5.963 8.041-24.967 28.586-53.357 50.137-83.182 0.875-1.172 2.082-2.658 4.045-3.369 1.975-0.727 3.188-0.082 4.047 0.43 21.549 14.137 42.096 27.637 50.145 46.742 0.75 1.734 2.566 2.742 4.83 2.453 11.033-1.445 23.135-2.393 35.043-2.172 0.635 0.008 1.305-0.107 1.963-0.346 1.199-0.438 2.377-1.256 3.354-2.354 1.486-1.676 2.328-3.932 2.129-5.709-1.816-17.66-9.049-32.828-22.121-46.857-12.295-13.17-28.305-23.682-43.795-33.838-1.129-0.742-2.254-1.469-3.361-2.213-1.131-0.732-1.742-2.791-0.271-5.168 3.625-5.83 7.092-11.693 10.33-17.613 15.447-28.215 23.473-52.482 24.523-74.182 0.082-1.537-0.471-2.807-1.512-3.525-1.043-0.711-2.486-0.809-3.996-0.258l-33.535 12.205c-2.887 1.049-5.283 4.154-5.498 7.109-2.361 32.74-29.33 70.053-57.865 109.555-15.488 21.439-31.506 43.602-43.791 65.723zM215.028 424.98c10.057-14.152 16.811-24.268 22.326-33.449 1.107-1.842 2.611-5.748 0.678-8.623-5.557-8.305-8.611-17.035-9.338-26.58-0.213-2.791-2.641-4.16-5.523-3.113l-33.475 12.18c-1.502 0.545-2.963 1.719-4.004 3.188-1.039 1.471-1.594 3.154-1.52 4.633 1 19.99 8.291 37.594 22.395 53.926 0.563 0.66 2.047 1.85 4.549 0.934 1.963-0.717 3.119-1.988 3.912-3.094zM269.788 523.668c2.594-0.941 5.070-3.969 5.070-6.953 0-0.857-0.197-1.402-0.404-1.881-1.395-3.219-7.746-14.316-19.576-21.51-1.32-0.801-2.824-0.504-3.865-0.125l-0.008 0.008c-1.031 0.373-2.535 1.166-3.855 2.932-11.832 15.805-18.182 31.525-19.578 35.754-0.207 0.627-0.404 1.32-0.404 2.188 0 2.98 2.477 4.205 5.070 3.252 2.137-0.775 8.242-3.623 18.744-7.455l0.066-0.016c10.5-3.832 16.604-5.418 18.74-6.193z" />
<glyph unicode="&#xe00b;" glyph-name="php" d="M343.688 564.052c22.273-25.5 28.979-61.090 20.092-106.785-3.66-18.822-9.848-36.031-18.555-51.625-8.725-15.602-20.102-29.865-34.174-42.799-16.768-15.695-35.396-26.875-55.891-33.535-20.5-6.68-46.607-10.006-78.346-10.006h-71.926l-19.92-102.482h-83.969l74.92 385.478h161.477c48.58 0 84.018-12.75 106.291-38.246zM276.986 463.154c5.564 28.652 3.025 48.867-7.594 60.65-10.629 11.777-31.889 17.664-63.793 17.664h-57.535l-31.357-161.334h51.086c33.85 0 59.066 6.379 75.643 19.139 16.566 12.756 27.744 34.047 33.551 63.881zM675.656 498.682l-34.857-179.381h-84.635l33.145 170.557c3.768 19.404 2.385 32.639-4.168 39.693-6.545 7.059-20.484 10.592-41.801 10.592h-66.578l-42.916-220.842h-83.312l74.92 385.478h83.312l-19.918-102.482h74.223c46.691 0 78.904-8.154 96.633-24.436 17.732-16.293 23.039-42.689 15.953-79.18zM999.108 564.052c22.281-25.5 28.977-61.090 20.092-106.785-3.66-18.822-9.846-36.031-18.553-51.625-8.719-15.602-20.104-29.865-34.176-42.799-16.768-15.695-35.396-26.875-55.891-33.535-20.502-6.68-46.6-10.006-78.338-10.006h-71.926l-19.92-102.482h-83.969l74.92 385.478h161.477c48.572 0 84.010-12.75 106.283-38.246zM932.412 463.154c5.557 28.652 3.027 48.867-7.592 60.65-10.637 11.777-31.895 17.664-63.799 17.664h-57.529l-31.355-161.334h51.074c33.852 0 59.074 6.379 75.643 19.139 16.576 12.756 27.754 34.047 33.559 63.881z" />
<glyph unicode="&#xe00c;" glyph-name="ruby" d="M730.562 198.929l217.27-192.832-427.508 33.588c83.756 50.6 152.852 111.025 204.588 159.133 0.852-0.166 1.758-0.258 2.664-0.258 0.99 0.002 1.988 0.121 2.986 0.369zM971.036 83.7l-51.697 351.746c40.6 62.883 71.918 121.775 91.715 172.344zM745.094 210.833c53.906 57.723 111.189 130.326 158.896 201.338l57.871-393.728zM491.902 23.247l0.162 0.047 355.996-27.965-499.572-33.596c48.668 15.045 96.725 35.646 143.414 61.514zM74.693 275.698l238.56 51.020-107.701-356.8zM345.028 344.823l271.388 251.376 92.977-368.408zM636.806 632.788l74.096 239.63 265.562-216.894zM830.004 966.962l-123.799-68.373-99.086 69.381zM9.57 405.284l46.123-119.807-53.457-97.5zM131.336 317.984c-28.725 1.842-51.506 8.406-67.539 24.604-18.029 18.178-27.104 44.018-26.967 76.814 0.387 92.244 72.477 223.042 183.648 333.236 116.328 115.334 252.818 184.078 344.136 183.684 30.168-0.131 53.84-8.662 70.377-25.35 69.297-69.984 4.092-245.752-154.492-402.918-44.090-43.695-87.859-82.076-131.289-112.76-30.283-20.502-60.453-37.943-89.535-51.727-43.174-18.898-85.973-28.285-128.34-25.584zM462.206 28.441c-8.863-4.58-17.838-9.020-26.965-13.287-57.678-27.012-117.672-45.939-178.309-56.277-9.396-1.594-18.91-3.004-28.541-4.23 0 0-7.455-0.896-8.379-1.016l110.367 365.572 146.643-282.946c-4.889-2.645-9.844-5.244-14.816-7.816zM761.686 261.818c-9.65-11.225-18.516-21.254-26.914-30.475l-90.148 357.19c69.666-42.795 175.664-107.756 228.406-140.006l19.863-12.146c-11.018-16.885-22.719-34.080-34.832-51.168-11.449-16.152-22.16-30.773-32.754-44.721-4.682-6.172-9.396-12.225-14.113-18.268-4.496-5.76-9-11.418-13.516-17.059-4.916-6.115-9.814-12.197-14.742-18.158-2.928-3.563-10.463-12.535-10.463-12.535-2.436-2.912-4.881-5.814-7.309-8.662zM1016.47 836.9c4.898-20.158 7.061-42.588 6.42-66.734-0.102-3.725-0.23-7.443-0.459-11.146-0.24-4.027-0.486-8.023-0.869-11.996-2.664-28.352-8.783-58.406-18.176-89.398l-267.376 218.654zM908.65 453.316c-0.193-0.246-0.365-0.477-0.533-0.686l-28.174 17.195c-52.842 32.32-159.125 97.457-231.882 142.168l348.824 23.273c-12.086-43.479-41.068-102.553-64.564-143.986-8.441-14.895-16.035-27.26-21.373-34.818-0.84-1.223-1.609-2.24-2.297-3.146zM490.528 40.544l-149.463 288.402 370.838-119.615c-76.184-74.131-144.191-126.006-220.286-168.174zM1 148.915l47.799 87.445-17.316-206.226c-18.596 30.619-28.844 70.49-30.482 118.781zM68.568 249.986c27.736-59.682 89.424-212.876 111.041-266.58l9.99-24.824c-6.344-0.309-12.26-0.465-17.955-0.465-56.553 0-94.588 16.629-123.057 53.869zM1012.288 851.592l-281.286 39.502 135.922 75.061c60.838-11.029 104.479-37.922 129.742-79.951 6.262-10.42 11.51-22.035 15.621-34.611z" />
<glyph unicode="&#xe00d;" glyph-name="js" d="M2.016 971.8h1020.984v-1021.836c-340.342 0.648-683.23-1.299-1021.958 0.973v1017.948c-0.082 1.377-0.166 2.75 0.973 2.916zM519.786 68.466c42.035 42.357 35.947 113.936 35.947 199.133v235.056h-94.232c-1.131-0.166-1.049-1.539-0.965-2.916v-279.744c0-44.088 3.045-84.709-23.32-98.107-41.596-21.125-78.455 13.189-89.367 43.715-26.756-15.346-53.004-31.191-78.688-47.59 26.682-50.742 68.482-87.424 143.768-87.424 45.902 0 83.215 14.039 106.857 37.877zM941.392 152.966c7.27 108.447-73.98 138.861-146.686 169.982-24.020 10.289-53.877 22.457-61.197 44.688-8.207 24.926 5.791 45.463 21.369 52.447 34.256 15.379 75.086-9.947 83.543-35.938 25.773 15.346 51.475 30.779 74.803 48.562-27.412 45.527-67.602 78.113-140.859 75.768-40.338-1.287-70.635-14.021-93.258-33.021-22.074-18.543-39.123-44.564-41.777-81.592-7.934-110.842 75.018-139.137 145.723-169.984 22.279-9.717 47.057-19.529 57.311-38.85 21.143-39.855-16.307-66.152-48.57-68.965-51.783-4.516-86.697 25.783-106.857 57.305-25.193-15.611-52.58-29.010-76.75-45.645 33.619-59.107 88.742-97.381 174.867-97.135 87.854 0.25 152.992 42.609 158.34 122.377z" />
<glyph unicode="&#xe00e;" glyph-name="python" d="M389.468 479.042c-82.689 0-152.307-70.982-152.307-151.461v-111.396h-83.834c-70.861 0-112.248 51.438-129.58 123.613-23.389 96.979-22.385 154.926 0 247.796 19.398 81.025 81.447 123.615 152.316 123.615h335.316v30.973h-243.816v92.926c0 70.359 18.732 108.508 121.904 126.742 35.035 6.193 74.826 9.748 116.516 9.941 41.674 0.195 85.133-2.975 127.020-9.941 66.172-11.033 121.912-60.672 121.912-126.742v-232.166c0-68.084-54.111-123.9-121.912-123.9h-243.536zM374.126 804.134c25.189 0 45.744 20.709 45.744 46.322 0 25.697-20.557 46.6-45.744 46.6-25.273 0-45.756-20.902-45.756-46.6 0-25.611 20.482-46.322 45.756-46.322zM998.74 587.594c24.357-97.973 25.443-171.424 0-247.794-24.645-74.184-51.059-123.613-121.92-123.613h-365.44v-30.973h243.536v-92.922c0-70.357-60.535-106.135-121.912-123.887-92.355-26.818-166.357-22.705-243.536 0-64.453 18.934-121.904 57.812-121.904 123.887v232.158c0 66.814 55.205 123.908 121.904 123.908h243.536c81.152 0 152.316 70.639 152.316 154.584v108.268h91.5c70.951 0 104.398-53.076 121.92-123.615zM648.356 123.269c-25.189 0-45.754-20.713-45.754-46.312 0-25.701 20.564-46.609 45.754-46.609 25.281 0 45.746 20.908 45.746 46.609 0 25.6-20.465 46.312-45.746 46.312z" />
<glyph unicode="&#xe00f;" glyph-name="jquery" d="M998.322 243.54c0 0-127.107-342.772-564.708-262.976-6.885 1.283-13.488 3.676-20.178 5.699-1.564 0.457-3.143 0.957-4.707 1.404-6.57 2.045-13.074 4.141-19.539 6.395-0.74 0.258-1.445 0.5-2.195 0.766-5.889 2.070-11.744 4.27-17.523 6.488-1.516 0.59-3.021 1.164-4.527 1.781-6.227 2.459-12.424 5.031-18.553 7.717-1.131 0.498-2.221 0.998-3.369 1.504-5.365 2.387-10.664 4.857-15.918 7.371-1.363 0.691-2.736 1.332-4.109 1.979-0.748 0.375-1.555 0.748-2.32 1.131-3.393 1.695-6.703 3.457-10.045 5.207-2.578 1.33-5.199 2.627-7.762 4-4.73 2.578-9.396 5.199-14.039 7.877-1.723 0.982-3.461 1.93-5.166 2.92-6.305 3.709-12.543 7.561-18.688 11.453-1.738 1.115-3.459 2.295-5.172 3.445-4.008 2.594-8.020 5.189-11.945 7.9-0.416 0.283-0.813 0.582-1.221 0.873-1.523 1.031-2.969 2.088-4.482 3.186-4.143 2.879-8.242 5.822-12.301 8.816-1.961 1.48-3.918 2.969-5.863 4.459-3.676 2.803-7.334 5.674-10.963 8.566-1.803 1.447-3.633 2.877-5.438 4.34-4.424 3.645-8.834 7.355-13.15 11.098-0.814 0.713-1.68 1.414-2.512 2.162-0.084 0.033-0.143 0.1-0.234 0.176-4.896 4.291-9.705 8.691-14.471 13.182-1.439 1.314-2.871 2.721-4.316 4.1-3.561 3.42-7.086 6.863-10.555 10.355-1.439 1.414-2.861 2.844-4.242 4.277-4.48 4.607-8.908 9.221-13.23 13.939-0.158 0.213-0.316 0.34-0.508 0.549-0.074 0.080-0.184 0.191-0.258 0.283-4.424 4.873-8.766 9.855-13.016 14.854-1.189 1.406-2.385 2.844-3.561 4.266-3.168 3.818-6.287 7.627-9.348 11.486-1.271 1.605-2.543 3.227-3.799 4.84-3.434 4.436-6.828 8.9-10.115 13.443-0.615 0.848-1.271 1.68-1.863 2.512-0.127 0.139-0.232 0.291-0.316 0.432-3.809 5.266-7.484 10.631-11.094 16.002-1.121 1.648-2.178 3.344-3.26 5.041-2.611 3.975-5.174 7.953-7.652 11.977-1.295 2.063-2.527 4.133-3.775 6.207-2.254 3.758-4.459 7.518-6.596 11.309-1.223 2.146-2.428 4.242-3.611 6.447-0.658 1.164-1.371 2.363-2.012 3.584-1.123 2.031-2.137 4.15-3.236 6.221-1.695 3.252-3.418 6.521-5.055 9.83-69.115 138.189-80.393 307.388 10.096 437.448l70.627 89.578c-79.686-154.016-43.871-341.556 55.816-477.522 3.6-4.949 7.287-9.832 11.053-14.711 1.166-1.473 2.336-2.955 3.502-4.369 3.133-3.99 6.336-7.934 9.572-11.836 1.166-1.371 2.303-2.717 3.494-4.131 4.326-5.107 8.75-10.18 13.291-15.129 0.217-0.24 0.424-0.457 0.633-0.689 4.291-4.684 8.666-9.307 13.115-13.865 1.381-1.396 2.787-2.779 4.191-4.178 3.494-3.564 7.063-7.027 10.689-10.469 1.371-1.363 2.752-2.678 4.176-4.035 4.898-4.557 9.838-9.090 14.869-13.516 0.523-0.457 1.064-0.879 1.547-1.303 4.658-4.051 9.373-7.994 14.148-11.92 1.662-1.357 3.359-2.711 5.055-4.059 3.75-3.018 7.545-5.957 11.363-8.875 1.82-1.396 3.691-2.818 5.582-4.215 4.148-3.078 8.342-6.105 12.574-9.1 1.439-0.973 2.836-2.031 4.293-3.010 4.375-3.029 8.834-5.973 13.309-8.852 1.68-1.115 3.344-2.279 5.039-3.361 6.172-3.908 12.41-7.75 18.715-11.461 1.621-0.932 3.244-1.803 4.84-2.703 4.758-2.752 9.523-5.463 14.379-8.059 2.629-1.461 5.332-2.785 7.992-4.191 3.977-2.047 7.953-4.127 11.977-6.088 1.521-0.748 3.002-1.447 4.492-2.154 5.131-2.471 10.279-4.85 15.486-7.209 1.23-0.535 2.428-1.092 3.668-1.623 6.063-2.654 12.191-5.199 18.371-7.635 1.588-0.631 3.178-1.238 4.773-1.873 5.623-2.178 11.287-4.291 17.018-6.313 0.889-0.316 1.779-0.639 2.643-0.955 6.389-2.199 12.816-4.293 19.297-6.271 1.654-0.518 3.311-1.018 5.006-1.516 6.637-1.961 13.232-4.084 20.035-5.623 179.547-40.863 369.036-4.166 475.792 134.92zM364.88 463.284c-10.754 15.424-20.377 31.615-28.949 48.314-51.039 99.594-54.592 225.648 10.838 319.818l53.471 75.477c-43.521-73.518-48.938-164.107-23.828-244.812 23.988-77.812 74.396-146.438 137.988-196.66 1.365-1.086 2.738-2.145 4.117-3.23 5.98-4.559 12.037-9.064 18.256-13.357 2.896-1.961 5.83-3.895 8.785-5.803 1.371-0.902 2.701-1.855 4.076-2.732 4.465-2.832 8.973-5.59 13.539-8.268 0.891-0.529 1.805-1.006 2.678-1.51 3.686-2.148 7.428-4.268 11.188-6.309 1.697-0.875 3.4-1.75 5.1-2.625 2.943-1.51 5.863-3.049 8.85-4.508 5.789-2.861 11.662-5.59 17.623-8.188 1.273-0.582 2.578-1.082 3.885-1.648 4.748-2.012 9.547-3.939 14.396-5.803 1.99-0.766 4.018-1.506 6.039-2.246 4.43-1.615 8.898-3.16 13.389-4.617 1.922-0.641 3.818-1.271 5.766-1.855 6.314-1.988 12.674-3.842 19.119-5.539 145.309-37.711 281.474 10.605 351.794 111.871 0 0-77.998-260.138-415.866-204.156-6.563 1.082-12.783 3.561-19.070 5.506-2.004 0.617-3.967 1.275-5.973 1.912-4.424 1.48-8.809 2.963-13.189 4.592-2.029 0.74-4.102 1.48-6.146 2.254-4.816 1.846-9.605 3.818-14.355 5.83-1.291 0.535-2.604 1.033-3.869 1.598-5.947 2.578-11.76 5.322-17.523 8.158-0.408 0.178-0.85 0.375-1.273 0.574-2.828 1.406-5.623 2.895-8.4 4.342-1.43 0.748-2.861 1.447-4.258 2.229-4.025 2.178-8.061 4.432-12.010 6.713-0.641 0.373-1.271 0.705-1.922 1.105-4.598 2.678-9.117 5.465-13.59 8.334-1.348 0.816-2.619 1.746-3.967 2.611-2.785 1.83-5.598 3.611-8.35 5.523-0.191 0.131-0.34 0.268-0.533 0.398-6.254 4.291-12.352 8.799-18.332 13.381-1.34 1.031-2.65 2.088-3.975 3.104-5.955 4.715-11.826 9.514-17.516 14.488-0.043 0.066-0.094 0.082-0.15 0.148-0.209 0.15-0.4 0.367-0.617 0.525-5.123 4.531-10.113 9.197-14.986 13.939-1.307 1.273-2.613 2.521-3.877 3.816-5.031 4.982-9.973 10.047-14.68 15.242-13.016 11.291-23.879 28.014-33.691 42.062zM721 579.788c-67.51 24.748-125.354 76.961-153.582 143.51-26.756 62.705-22.973 133.209 15.602 189.982l28.879 39.801c-53.363-96.408-2.563-214.792 79.219-276.85 14.355-10.832 29.809-20.291 46.051-28.090 8.551-4.104 17.324-7.73 26.248-10.912 6.973-2.461 14.906-5.070 22.115-6.832 91.412-22.178 165.893-6.857 210.222 56.963-13.475-19.395-64.066-151.178-250.634-115.133-4.109 0.771-8.059 2.225-12.035 3.477-1.24 0.365-2.471 0.789-3.701 1.168-2.818 0.953-5.598 1.875-8.383 2.916z" />
<glyph unicode="&#xe010;" glyph-name="nodejs" d="M231.778 669.030l-48.105 27.545c-3.023 1.783-4.902 4.998-4.902 8.488v58.611c0 3.49-1.855 6.729-4.885 8.465l-20.479 11.799c-1.484 0.887-3.203 1.324-4.863 1.324-1.709 0-3.379-0.438-4.902-1.324l-20.492-11.799c-3.033-1.738-4.881-4.977-4.881-8.465v-58.611c0-3.49-1.855-6.684-4.891-8.488l-48.123-27.545c-1.494-0.916-3.35-0.916-4.857 0-1.533 0.842-2.441 2.467-2.441 4.213l-0.178 125.467c0 3.518 1.877 6.75 4.895 8.494l80.967 46.596c1.389 0.807 2.92 1.221 4.463 1.285h0.844c1.553-0.064 3.082-0.479 4.459-1.285l80.959-46.598c3.041-1.746 4.887-4.977 4.887-8.494l-0.156-125.467c0-1.746-0.938-3.371-2.432-4.213-1.49-0.916-3.377-0.916-4.885 0.002zM543.234 702.66v93.506c0 3.496 1.863 6.721 4.885 8.465l81.006 46.746c3.018 1.746 6.742 1.752 9.775 0.008l20.271-11.688c1.064-0.615 2.375-0.615 3.43 0 1.051 0.613 1.709 1.744 1.709 2.963v124.254c0 1.738 0.918 3.334 2.41 4.221 1.502 0.873 3.35 0.889 4.865 0.045l48.195-26.896c3.105-1.723 5.021-4.998 5.021-8.541v-233.082c0-3.498-1.865-6.719-4.895-8.471l-81.004-46.777c-3.023-1.76-6.758-1.76-9.791 0l-80.99 46.777c-3.025 1.752-4.889 4.975-4.889 8.471zM603.562 733.378c0-0.873 0.463-1.678 1.217-2.113l27.812-16.029c0.754-0.428 1.686-0.428 2.439 0l27.812 16.029c0.754 0.436 1.219 1.24 1.219 2.113v32.115c0 0.873-0.465 1.688-1.219 2.115l-27.805 16.066c-0.762 0.436-1.693 0.436-2.455 0l-27.812-16.066c-0.746-0.428-1.209-1.242-1.209-2.115v-32.115zM961.35 805.902c3.025-1.744 4.873-4.967 4.875-8.457v-22.648c0-3.49-1.852-6.713-4.875-8.465l-48.49-28.189c-1.516-0.873-3.377-0.873-4.893-0.008-1.518 0.871-2.455 2.49-2.455 4.236v23.049c0 1.744-0.932 3.365-2.447 4.244l-25.375 14.625c-1.506 0.865-3.369 0.865-4.877 0l-25.359-14.625c-1.516-0.879-2.447-2.498-2.447-4.244v-29.289c0-1.752 0.939-3.373 2.457-4.244l81.475-46.768c1.533-0.881 2.471-2.514 2.457-4.275-0.008-1.76-0.971-3.377-2.514-4.242l-48.664-27.051c-2.98-1.648-6.627-1.643-9.588 0.061l-80.465 45.842c-3.049 1.746-4.939 4.984-4.939 8.502v93.477c0 3.494 1.861 6.725 4.885 8.471l80.975 46.738c3.029 1.758 6.77 1.752 9.797-0.008zM305.566 695.918c-3.031 1.752-4.895 4.975-4.895 8.473v93.543c0 3.486 1.861 6.725 4.895 8.471l80.965 46.73c3.027 1.752 6.75 1.752 9.783 0l80.982-46.73c3.029-1.744 4.893-4.982 4.893-8.471v-93.543c0-3.496-1.861-6.721-4.885-8.473l-80.99-46.773c-3.033-1.746-6.756-1.746-9.789 0zM787.89 480.154c16.168-9.352 26.229-26.791 26.234-45.51v-288.144c0-18.705-10.061-36.123-26.229-45.533l-249.668-144.156c-7.986-4.627-17.043-7.008-26.291-7.008-9.115 0-18.201 2.383-26.186 7.008l-83.363 49.326c-12.438 6.941-6.367 9.404-2.256 10.838 16.605 5.768 19.961 7.090 37.689 17.152 1.85 1.051 4.289 0.637 6.195-0.459l64.045-38.029c2.322-1.301 5.598-1.301 7.734 0l249.682 144.119c2.328 1.33 3.814 3.977 3.814 6.742v288.146c0 2.824-1.488 5.455-3.875 6.883l-249.58 143.992c-2.301 1.346-5.375 1.346-7.688 0l-249.53-144.031c-2.424-1.389-3.955-4.111-3.955-6.846v-288.146c0-2.766 1.531-5.354 3.941-6.662l68.398-39.537c37.105-18.531 59.832 3.32 59.832 25.277v284.478c0 4.023 3.23 7.193 7.252 7.193h31.664c3.953 0 7.236-3.17 7.236-7.193v-284.478c0-49.533-26.982-77.938-73.936-77.938-14.424 0-25.797 0-57.52 15.613l-65.463 37.713c-16.176 9.33-26.186 26.828-26.186 45.533v288.146c0 18.719 10.010 36.193 26.186 45.51l249.676 144.281c15.799 8.93 36.809 8.93 52.475 0zM598.896 173.984c59.314 0 84.561 13.41 84.562 44.885 0 18.143-7.156 31.604-99.342 40.654-77.027 7.6-124.666 24.641-124.666 86.268 0 56.785 47.877 90.666 128.156 90.666 90.188 0 134.818-31.295 140.473-98.453 0.217-2.336-0.605-4.561-2.15-6.27-1.535-1.611-3.688-2.588-5.957-2.588h-36.543c-3.783 0-7.125 2.678-7.896 6.352-8.768 38.971-30.088 51.434-87.924 51.434-64.762 0-72.287-22.562-72.287-39.436 0-20.477 8.885-26.443 96.322-38.014 86.512-11.457 127.617-27.633 127.617-88.463 0-61.346-51.154-96.463-140.363-96.463-123.205 0-149.012 56.557-149.012 103.967 0 4.531 3.619 8.139 8.129 8.139h36.404c4.064 0 7.451-2.949 8.088-6.906 5.492-37.053 21.883-55.771 96.389-55.771zM876.656 770.712l15.545-8.969c0.586-0.334 0.941-0.953 0.941-1.619v-17.959c0-0.666-0.355-1.287-0.941-1.619l-15.545-8.969c-0.578-0.334-1.295-0.334-1.871 0l-15.533 8.969c-0.584 0.332-0.939 0.953-0.939 1.619v17.959c0 0.666 0.355 1.285 0.939 1.619l15.533 8.969c0.578 0.34 1.295 0.34 1.871 0z" />
<glyph unicode="&#xe011;" glyph-name="prog-wordpress" d="M512 971.8c281.758 0 511-229.218 511-510.984 0-281.764-229.242-511.016-511-511.016-281.766 0-511 229.252-511 511.016 0 281.766 229.234 510.984 511 510.984zM52.574 460.816c0-181.844 105.66-339.020 258.944-413.472l-219.164 600.45c-25.49-57.131-39.779-120.363-39.779-186.977zM512 1.357c53.496 0 104.812 9.24 152.568 26.047-1.223 1.973-2.361 4.061-3.293 6.33l-141.207 386.892-137.865-400.548c41.18-12.107 84.703-18.721 129.797-18.721zM575.318 676.228l166.031-493.866 45.834 153.107c19.838 63.568 34.959 109.205 34.959 148.518 0 56.805-20.402 96.113-37.877 126.711-23.287 37.852-45.127 69.887-45.127 107.748 0 42.236 32.021 81.541 77.146 81.541 2.041 0 3.979-0.25 5.957-0.365-81.74 74.895-190.643 120.629-310.242 120.629-160.51 0-301.718-82.365-383.868-207.076 10.795-0.352 20.949-0.566 29.566-0.566 48.049 0 122.445 5.838 122.445 5.838 24.76 1.455 27.68-34.932 2.936-37.861 0 0-24.893-2.91-52.572-4.357l167.299-497.66 100.553 301.536-71.566 196.125c-24.762 1.447-48.191 4.357-48.191 4.357-24.766 1.465-21.863 39.316 2.912 37.861 0 0 75.852-5.838 120.988-5.838 48.047 0 122.461 5.838 122.461 5.838 24.768 1.455 27.688-34.932 2.936-37.861 0 0-24.926-2.91-52.58-4.357zM742.972 63.71c136.592 79.637 228.446 227.614 228.446 397.106 0 79.887-20.41 154.98-56.273 220.41 1.977-14.629 3.094-30.334 3.094-47.25 0-46.59-8.732-99.004-34.939-164.543z" />
<glyph unicode="&#xe012;" glyph-name="django" d="M642.76 971.8l0.002-773.502c-85.738-16.275-148.686-22.783-217.016-22.783-204.010 0-310.362 92.229-310.362 269.112 0 170.359 112.863 281.040 287.56 281.040 27.137 0 47.742-2.17 72.709-8.676v254.81h167.105zM475.654 314.394v268.042c-19.545 6.508-35.812 8.676-56.418 8.676-84.66 0-133.486-52.086-133.486-143.232 0-88.99 46.664-137.809 132.395-137.809 18.443 0 33.633 1.078 57.51 4.324zM908.618 970.902v-171.451h-167.113v171.451h167.113zM741.504 713.736h167.113v-387.398c0-133.469-9.777-197.484-39.072-252.834-27.121-53.18-62.934-86.805-136.73-123.703l-155.178 73.793c73.777 34.717 109.619 65.084 132.393 111.766 23.869 47.748 31.475 103.088 31.475 248.504v329.874z" />
<glyph unicode="&#xe013;" glyph-name="rails" d="M1023 769.276l-22.506-33.758s-56.266 63.758-159.389 52.514c-103.148-11.252-285.034-116.271-313.17-346.922-28.127-230.648 82.514-481.93 82.514-481.93h-498.806s-13.125 82.512 18.754 240.028c31.871 157.52 78.754 262.53 159.387 412.552 80.635 150.014 210.024 273.78 397.546 290.646 187.527 16.883 335.67-133.131 335.67-133.131zM12.252 210.46l97.518-7.5-16.883-97.512-91.887 11.246zM192.275 489.864l-26.248-73.121-88.135 28.129 28.127 78.752zM338.548 728.014l-50.635-60-67.508 45.012 52.504 58.119zM527.936 881.78l-61.877-35.621-45.004 54.377 61.877 31.877zM728.594 909.908l-76.895-1.881-11.244 54.393 80.627-3.758zM962.992 859.282l-11.25-16.875-52.506 28.129 1.877 33.75zM889.852 731.774v28.127l50.635-11.252v-22.498zM728.594 735.516l52.496 13.131 7.502-30-35.629-28.127zM689.21 621.124l-22.51-39.375-54.375 60 39.373 35.631zM552.32 472.998l24.379 48.746 54.377-41.252-15.004-61.885zM546.692 285.464l3.75 65.637 71.271-37.508 3.74-61.879zM691.074 45.433l-99.373 5.623-18.756 67.516h82.506z" />
<glyph unicode="&#xe014;" glyph-name="bash" d="M155.107 380.69l202.378 79.725v1.223l-202.378 80.336v88.928l309.078-136.758v-65.613l-309.078-136.758v88.918zM868.892 285.027v-79.727h-365.492v79.727h365.492zM937.834 971.8c46.842 0 85.166-38.326 85.166-85.166v-851.666c0-46.842-38.324-85.166-85.166-85.166h-851.668c-46.842 0-85.166 38.324-85.166 85.166v851.666c0 46.84 38.324 85.166 85.166 85.166h851.668zM937.834 34.966v723.918h-851.668v-723.918h851.668z" />
<glyph unicode="&#xe015;" glyph-name="html5" d="M217.338 971.798h46.064v-45.512h42.137v45.512h46.068v-137.818h-46.062v46.152h-42.139v-46.152h-46.064v137.818h-0.004zM412.182 926.094h-40.549v45.703h127.188v-45.703h-40.57v-92.115h-46.064v92.115h-0.004zM519.004 971.798h48.041l29.541-48.426 29.518 48.426h48.047v-137.818h-45.877v68.309l-31.689-49h-0.789l-31.713 49v-68.309h-45.078v137.818zM697.080 971.798h46.076v-92.266h64.781v-45.553h-110.857v137.818zM149.975 770.948l724.048 0.002-65.961-738.952-296.508-82.197-295.69 82.080zM736.578 595.56l2.17 24.314h-454.040l2.172-24.314 22.277-249.792h314.145l-10.516-117.562-101.186-27.314-100.947 27.264-6.455 72.293h-90.994l12.703-142.322 185.678-51.549 0.416 0.119v0.016l185.512 51.418 1.365 15.305 21.299 238.638 2.213 24.344h-330.332l-8.285 92.814h346.869l1.811 20.377z" />
<glyph unicode="&#xe016;" glyph-name="css3" d="M408.128 879.436v-44.037h-112.605v136.398h112.605v-48.26h-64.346v-44.102h64.346zM523.882 923.538l44.982-44.102v-44.037h-112.615v44.029c0-0.004 31.975 0.041 44.713 0.041-21.791 21.791-29.646 29.002-44.713 44.068v48.26h112.615v-48.26h-44.982zM683.492 923.538l44.982-44.102v-44.037h-112.615v44.029c0-0.004 31.98 0.041 44.711 0.041-21.789 21.791-29.648 29.002-44.711 44.068v48.26h112.613v-48.26h-44.98zM876.79 770.576l-68.404-740.97-296.386-79.801-296.392 79.801-68.395 740.97h729.578zM738.954 619.912h-458.462l11.059-89.477h232.549l-224.501-93.502 7.037-87.461 315.024-1.016-7.043-116.623-103.727-29.107-99.369 25.084-6.029 72.391h-92.822l12.064-139.752 187.336-55.299 186 54.293 24.133 277.488h-210.988l0.52 0.223 218.172 93.279z" />
<glyph unicode="&#xe017;" glyph-name="angularjs" d="M540 646.38l89.479-209.59-178.959 0.002 89.48 209.588zM1008.738 776.126l-69.863-628.766-398.876-225.56-398.874 225.558-69.865 628.77 468.738 167.67zM839.070 197.261l-299.070 656.712-299.070-656.712h111.783l57.885 151.703 129.402 1.996 129.4-1.996 57.883-151.703h111.787z" />
<glyph unicode="&#xe018;" glyph-name="codepen" d="M512.004 971.8c282.218 0 510.996-228.782 510.996-511.004 0-282.226-228.778-510.996-510.996-510.996-282.226 0-511.004 228.77-511.004 510.996 0 282.222 228.778 511.004 511.004 511.004zM512.004 33.718c235.488 0 427.070 191.59 427.070 427.078 0 235.484-191.582 427.076-427.070 427.076-235.492 0-427.076-191.592-427.076-427.076 0-235.488 191.582-427.078 427.076-427.078zM827.718 560.604c0.148-1.164 0.242-2.344 0.242-3.543v-192.537c0-1.195-0.096-2.377-0.242-3.559-0.055-0.383-0.156-0.779-0.223-1.16-0.133-0.768-0.271-1.531-0.473-2.279-0.117-0.449-0.285-0.881-0.426-1.313-0.215-0.664-0.434-1.33-0.695-1.994-0.188-0.449-0.402-0.883-0.609-1.314-0.287-0.611-0.582-1.209-0.924-1.809-0.25-0.418-0.516-0.83-0.773-1.246-0.361-0.566-0.738-1.115-1.148-1.648-0.297-0.414-0.613-0.797-0.93-1.178-0.43-0.498-0.879-0.998-1.355-1.465-0.355-0.361-0.705-0.729-1.078-1.059-0.5-0.451-1.016-0.883-1.539-1.299-0.406-0.316-0.805-0.633-1.23-0.93-0.156-0.102-0.299-0.232-0.447-0.332l-288.806-192.541c-4.563-3.037-9.816-4.57-15.059-4.57-5.252 0-10.506 1.531-15.068 4.57l-288.804 192.541c-0.15 0.1-0.293 0.23-0.449 0.332-0.426 0.299-0.824 0.613-1.221 0.93-0.533 0.416-1.049 0.846-1.537 1.299-0.381 0.33-0.73 0.695-1.088 1.059-0.473 0.467-0.92 0.967-1.346 1.465-0.324 0.383-0.641 0.764-0.938 1.178-0.398 0.531-0.783 1.082-1.141 1.648-0.275 0.416-0.529 0.828-0.779 1.246-0.334 0.6-0.633 1.195-0.924 1.809-0.209 0.432-0.424 0.863-0.607 1.314-0.266 0.664-0.482 1.33-0.699 1.994-0.141 0.432-0.297 0.861-0.422 1.313-0.203 0.748-0.334 1.512-0.477 2.279-0.064 0.381-0.164 0.777-0.213 1.16-0.16 1.182-0.25 2.361-0.25 3.559v192.537c0 1.199 0.090 2.379 0.25 3.543 0.047 0.396 0.148 0.779 0.213 1.178 0.143 0.768 0.273 1.533 0.477 2.279 0.123 0.449 0.279 0.881 0.422 1.313 0.217 0.666 0.434 1.33 0.699 1.979 0.184 0.447 0.398 0.895 0.607 1.328 0.291 0.615 0.59 1.213 0.924 1.793 0.25 0.434 0.506 0.85 0.779 1.264 0.355 0.566 0.742 1.115 1.141 1.646 0.297 0.4 0.613 0.799 0.938 1.182 0.426 0.496 0.871 0.996 1.346 1.461 0.355 0.363 0.705 0.729 1.088 1.063 0.488 0.447 1.004 0.883 1.537 1.295 0.396 0.316 0.795 0.635 1.221 0.932 0.156 0.1 0.299 0.232 0.449 0.334l288.804 192.539c9.125 6.082 21 6.082 30.127 0l288.806-192.539c0.15-0.102 0.291-0.234 0.447-0.334 0.426-0.299 0.824-0.615 1.23-0.932 0.523-0.412 1.039-0.846 1.539-1.295 0.369-0.334 0.723-0.697 1.078-1.063 0.479-0.465 0.926-0.965 1.355-1.461 0.316-0.385 0.635-0.781 0.93-1.182 0.41-0.529 0.785-1.080 1.148-1.646 0.258-0.414 0.523-0.83 0.773-1.264 0.342-0.58 0.637-1.176 0.924-1.793 0.207-0.434 0.422-0.881 0.609-1.328 0.262-0.648 0.482-1.313 0.695-1.979 0.141-0.432 0.309-0.861 0.426-1.313 0.199-0.746 0.34-1.512 0.473-2.279 0.066-0.398 0.168-0.781 0.223-1.178zM539.156 698.858v-126.652l117.723-78.75 95.031 63.576zM484.846 698.858l-212.758-141.826 95.041-63.576 117.717 78.75v126.652zM250.35 506.236v-90.883l67.936 45.443zM484.846 222.732v126.652l-117.717 78.734-95.041-63.557zM512.004 396.556l96.035 64.24-96.035 64.24-96.043-64.24zM539.156 222.732l212.754 141.83-95.031 63.557-117.723-78.734v-126.652zM773.652 415.352v90.883l-67.93-45.439z" />
<glyph unicode="&#xe019;" glyph-name="shopify" d="M850.456 771.886l111.432-753.82-315.458-68.266-584.314 108.988 77.561 598.174s1.063 17.967 6.611 24.602c5.053 6.039 26.586 12.176 26.586 12.176l91.434 28.32c16.055 67.916 60.592 203.876 165.5 241.974 34.98 12.676 64.223 9.832 86.891-8.482 5.178-4.191 9.906-9.182 14.199-14.896 20.434 1.547 39.457-3.641 56.725-15.844 23.355-16.568 41.967-45.211 55.592-85.432l31.363 9.705c1.598 0.375 10.256 1.873 16.693 0.625 2.693-0.551 5.34-1.572 7.635-3.32l60.455-60.105 82.164-6.115s2.842-0.322 5.465-1.994c2.617-1.674 3.467-6.289 3.467-6.289zM526.652 803.274c0.299 32.262-2.52 68.863-12.736 95.611-49.18-20.885-74.904-74.453-88.291-126.875zM441.794 930.998c-79.508-28.867-119.814-131.365-137.879-196.686l80.891 25.051c12.424 64.895 41.205 140.648 107.125 170.713-12.35 8.334-28.768 8.682-50.137 0.922zM498.408 490.164l38.838 115.699c-5.775 2.943-12.787 5.639-20.871 7.934-8.023 2.27-17.068 4.115-26.998 5.389-9.793 1.248-20.436 1.922-31.764 1.871-11.15-0.047-22.955-0.795-35.256-2.42-26.51-3.469-50.426-10.803-71.348-21.258-20.334-10.154-37.975-23.354-52.484-38.998-14.221-15.346-25.561-33.16-33.568-53.021-7.924-19.637-12.652-41.469-13.701-65.146-0.596-14.172 0.824-27.172 3.906-39.174 3.094-12.076 7.871-23.178 13.934-33.459 6.127-10.354 13.611-19.91 22.045-28.744 8.543-8.932 18.076-17.139 28.244-24.725 8.258-6.037 15.23-11.727 21.045-17.24 5.875-5.564 10.514-10.953 14.096-16.318 3.582-5.389 6.076-10.754 7.6-16.316 1.533-5.539 2.084-11.254 1.809-17.342-0.25-6.064-1.559-11.729-3.867-16.791-2.309-5.014-5.615-9.383-9.881-12.801-4.244-3.471-9.42-5.988-15.496-7.361-6.025-1.346-12.912-1.572-20.621-0.449-8.732 1.273-17.541 3.816-26.098 7.086-8.447 3.242-16.656 7.211-24.34 11.502-7.598 4.268-14.697 8.809-21.010 13.275-6.25 4.363-11.736 8.682-16.229 12.473l-26.584-88.225c4.404-5.664 10.018-11.279 16.617-16.742 6.674-5.512 14.385-10.828 22.893-15.793 8.631-5.014 18.102-9.656 28.193-13.721 10.242-4.168 21.148-7.713 32.451-10.457 0.197-0.047 0.385-0.098 0.572-0.123 0.201-0.049 0.389-0.102 0.574-0.15 0.188-0.023 0.375-0.074 0.563-0.098 0.197-0.051 0.398-0.125 0.574-0.15 24.102-5.316 47.471-6.611 69.264-3.693 22.441 2.992 43.078 10.453 60.893 22.479 18.213 12.326 33.334 29.293 44.287 50.9 11.092 21.883 17.805 48.277 19.139 78.895 0.822 18.711-1.785 35.703-6.877 51.123-5.064 15.27-12.572 28.893-21.607 41.045-8.92 12.025-19.299 22.58-30.277 31.938-10.816 9.207-22.195 17.24-33.322 24.377-7.932 4.963-14.809 9.705-20.635 14.422-5.799 4.641-10.564 9.182-14.334 13.771-3.742 4.541-6.5 9.131-8.258 13.824-1.758 4.664-2.543 9.453-2.32 14.469 0.287 6.764 1.797 12.852 4.355 18.266 2.582 5.439 6.236 10.154 10.877 14.098 4.643 3.967 10.281 7.162 16.793 9.457 6.549 2.346 13.998 3.816 22.217 4.316 8.957 0.523 17.604 0.25 25.836-0.623 8.309-0.85 16.193-2.297 23.518-4.094 7.396-1.795 14.221-3.967 20.348-6.262 6.176-2.27 11.639-4.666 16.268-6.912zM561.672 814.102l49.402 15.295c-9.281 29.068-22.455 55.141-40.744 68.090-6.563 4.643-13.748 7.262-21.658 8.061 7.26-21.459 11.527-47.932 12.703-79.369 0.146-4.094 0.246-8.111 0.297-12.076z" />
<glyph unicode="&#xe01a;" glyph-name="github" d="M13.924 439.294c45.18 11.281 106.609 26.648 214.236 29.506-2.975 5.947-5.66 12.105-8.039 18.455-41.879 0.365-170.859-5.584-215.042-16.5-0.25-0.076-0.518-0.096-0.785-0.096-1.479 0-2.842 1.018-3.205 2.512-0.422 1.746 0.652 3.549 2.416 3.99 43.779 10.82 169.65 16.826 214.236 16.711-10.035 29.506-14.467 63.311-14.467 101.045 0 67.033 20.875 92.318 48.92 128.041-21.447 76.395 7.695 128.613 7.695 128.613s45.064 9.342 130.264-51.664c46.178 19.781 169.293 21.428 227.54 4.393 35.76 23.637 101.143 57.17 127.541 47.789 7.135-11.51 22.523-45.025 9.324-118.695 8.977-16.154 55.521-50.572 55.711-147.855-0.768-35.877-4.49-66.168-11.396-91.799 111.080 0.941 176.426-8.229 221.432-16.518 1.766-0.363 2.955-2.072 2.646-3.855-0.305-1.574-1.688-2.707-3.221-2.707-0.23 0-0.422 0.020-0.652 0.039-44.932 8.326-110.389 17.457-222.124 16.441-1.957-6.504-4.143-12.682-6.523-18.572 38.025-1.266 142.467-5.334 227.646-31.385 1.766-0.539 2.725-2.379 2.188-4.145-0.422-1.4-1.727-2.32-3.146-2.32-0.305 0-0.65 0.037-0.957 0.152-86.371 26.398-193.076 30.023-228.566 31.195-30.889-67.857-94.236-93.18-196.645-103.711 33.191-20.893 42.707-47.098 42.707-118.006 0-70.906-0.959-80.424-0.729-96.727 0.346-26.766 39.559-39.578 38.102-48.191-1.457-8.6-32.805-7.215-47.461-2.096-41.516 14.465-37.375 49-37.375 49l-1.379 94.809s2.84 51.031-16 51.031v-155.184c0-33.725 23.598-43.971 23.598-56.441 0-21.43-43.127 2.031-56.404 15.406-20.268 20.336-17.963 63.459-17.467 97.57 0.461 32.941-0.305 104.979-0.305 104.979l-13.754-0.289s5.639-157.373-7.252-186.051c-16.67-36.814-66.955-49.479-66.955-32.709 0 11.281 12.393 7.691 19.242 32.977 5.85 21.508 3.855 181.949 3.855 181.949s-16.113-9.535-16.113-39.578c0-13.754-0.385-92.316-0.385-115.703 0-29.41-41.766-46.156-61.834-46.156-10.168 0-22.809 0.496-22.809 5.885 0 13.604 38.197 21.586 38.197 49.883 0 24.535-0.537 87.652-0.537 87.652s-19.262-3.297-46.734-3.297c-69.256 0-91.166 44.201-101.584 68.93-13.564 32.211-31.156 47.346-49.842 59.436-11.473 7.424-14.121 16.191-0.844 18.686 61.312 11.547 76.986-69.527 117.928-82.436 29.217-9.23 66.781-5.238 85.467 6.848 2.477 24.77 20.318 46.178 35.188 57.457-104.135 9.996-165.873 46.158-197.873 104.291-108.932-2.611-170.744-18.072-216.058-29.391-3.299-0.826-6.521-1.631-9.629-2.418-0.268-0.057-0.539-0.076-0.807-0.076-1.479 0-2.82 0.998-3.203 2.494-0.443 1.764 0.652 3.568 2.418 4.010 3.119 0.768 6.324 1.553 9.604 2.396z" />
<glyph unicode="&#xe01b;" glyph-name="apple" d="M497.288 725.848c-10.898 59.42 17.197 120.568 51.033 161.779 37.289 45.471 101.283 80.34 155.973 84.172 9.236-62.299-16.188-122.996-49.652-165.93-35.9-46.125-97.625-81.893-157.354-80.021zM818.068 510.538c-39.15-108.881 10.801-242.712 132.256-288.514-23.887-53.211-35.502-76.982-66.221-124.047-43.139-65.584-103.809-147.348-178.951-147.982-66.826-0.637-84.020 43.561-174.744 43.045-90.59-0.447-109.574-43.887-176.492-43.232-75.119 0.645-132.621 74.525-175.762 140.117-88.727 135.176-118.471 287.41-98.559 404.29 7.176 41.664 20.334 79.070 39.758 109.18 52.828 81.459 136.127 129.154 214.38 129.154 79.801 0 129.812-43.895 195.732-43.895 63.99 0 102.945 43.895 195.076 43.895 69.633 0 143.424-38.076 195.979-103.66-52.008-28.66-85.531-71.139-102.453-118.35z" />
<glyph unicode="&#xe01c;" glyph-name="facebook" d="M566.244 728.452v-93.166h166.848l-18.090-148.734h-148.758v-536.75h-197.451v536.75h-102.887v148.734h102.887v112.604c0 55.641-4.193 82.041 19.449 125.156 23.654 43.113 90.373 100.102 205.772 98.73 115.426-1.422 164.080-12.527 164.080-12.527l-25.002-158.514s-73.705 19.463-109.885 12.527c-36.129-6.939-56.963-29.195-56.963-84.811z" />
<glyph unicode="&#xe01d;" glyph-name="linkedin" d="M233.008-27.638v0.002h-219.058v659.126h219.058v-659.128zM123.502 721.452v-0.002h-1.441c-73.516 0-121.061 50.656-121.061 113.906 0 64.656 48.988 113.881 123.934 113.883 74.934 0 121.061-49.225 122.504-113.881 0-63.25-47.57-113.906-123.936-113.906zM354.248-27.638c0 0 2.873 597.286 0 659.126h219.092v-95.588h-1.453c28.807 44.98 80.707 111.066 198.879 111.066 144.17 0 252.232-94.205 252.232-296.666v-377.942h-219.056v352.616c0 88.602-31.695 149.062-110.994 149.062-60.508 0-96.566-40.76-112.402-80.16-5.795-14.023-7.205-33.723-7.205-53.422v-368.094h-219.092z" />
<glyph unicode="&#xe01e;" glyph-name="rss" d="M274.354 86.632c0-74.928-60.756-135.684-135.66-135.684s-135.684 60.756-135.684 135.684c0 74.953 60.783 135.686 135.684 135.686 74.902 0 135.66-60.732 135.66-135.686zM3.457 971.8c561.078 0 1017.534-458.454 1017.532-1022h-195.889c0 455.506-368.604 826.132-821.642 826.132v195.867zM3.16 624.58c370.424 0 671.786-302.608 671.786-674.58h-195.842c0 128.102-49.553 248.366-139.502 338.738-89.824 90.248-209.29 139.953-336.442 139.953v195.889z" />
<glyph unicode="&#xe01f;" glyph-name="twitter" d="M918.372 669.226c0.406-9.002 0.611-18.045 0.611-27.129 0-277.084-210.922-596.57-596.548-596.57-118.418 0-228.644 34.713-321.432 94.207 16.424-1.945 33.092-2.939 50.023-2.939 98.242 0 188.637 33.518 260.418 89.768-91.773 1.682-169.191 62.309-195.875 145.607 12.816-2.453 25.936-3.771 39.459-3.771 19.102 0 37.633 2.574 55.234 7.359-95.91 19.268-168.199 104.004-168.199 205.592 0 0.891 0 1.764 0.021 2.635 28.266-15.693 60.588-25.123 94.977-26.217-56.268 37.592-93.275 101.77-93.275 174.523 0 38.424 10.32 74.436 28.387 105.4 103.414-126.854 257.882-210.312 432.144-219.072-3.568 15.35-5.436 31.348-5.436 47.791 0 115.783 93.881 209.664 209.664 209.664 60.346 0 114.807-25.467 153.049-66.203 47.773 9.387 92.627 26.846 133.139 50.875-15.654-48.969-48.869-90.049-92.178-116.004 42.418 5.070 82.852 16.342 120.443 33.010-28.102-42.035-63.666-78.959-104.627-108.525z" />
<glyph unicode="&#xe020;" glyph-name="windows" d="M213.338 867.924c0 0 204.246 111.049 378.982-22.785l-97.793-335.99s-109.512 75.34-190.721 67.205c-81.211-8.158-188.26-47.018-188.26-47.018zM1 131.667l97.281 338.472s109.668 50.996 200.708 44.486c90.996-6.508 163.697-55.461 179.332-66.695l-98.803-339.552s-109.797 71.445-187.82 64.936c-77.955-6.527-145.619-18.34-190.699-41.646zM432.208 78.47l97.283 336.562s104.256-67.838 172.537-66.189c67.248 1.605 113.801 6.928 204.992 42.617 0.729 0.33 2.596 1.65 1.936 1.297-1.934-1.297-97.721-336.496-97.721-336.496s-107.557-50.338-205.082-45.498c-97.504 4.947-156.088 60.67-173.945 67.707zM644.020 809.65c28.168-20.164 80.748-56.076 165.279-65.861 84.488-9.785 213.702 44.18 213.702 44.18l-97.283-337.004c-14.889-4.994-75.756-40.35-187.953-46.885-112.127-6.463-191.734 71.537-191.734 71.537z" />
<glyph unicode="&#xe021;" glyph-name="youtube" d="M68.707 971.8h91.92l59.207-182.191h5.727l56.465 182.191h92.707l-106.215-266.676v-189.178h-91.236v180.693zM384.386 775.486c0 26.748 10.988 48.006 32.984 63.877 21.969 15.867 51.498 23.801 88.602 23.801 33.785 0 61.455-8.383 83.012-25.1 21.609-16.715 32.385-38.225 32.385-64.574v-178.4c0-29.541-10.602-52.744-31.734-69.562-21.158-16.816-50.303-25.25-87.369-25.25-35.717 0-64.285 8.684-85.732 26.047-21.418 17.367-32.146 40.721-32.146 70.115v179.047zM468.41 589.952c0-9.533 2.879-16.818 8.707-22.059 5.814-5.189 14.111-7.734 24.902-7.734 11.064 0 19.861 2.594 26.361 7.885 6.512 5.338 9.781 12.625 9.781 21.908v188.129c0 7.537-3.344 13.625-9.98 18.266s-15.357 6.986-26.162 6.986c-9.943 0-18.053-2.346-24.266-6.986-6.238-4.641-9.344-10.729-9.344-18.266v-188.129zM919.984 857.624v-345.422h-81.766v38.125c-15.094-14.074-30.764-24.75-47.082-32.137-16.293-7.287-32.137-10.979-47.459-10.979-18.91 0-33.184 5.141-42.766 15.42-9.582 10.281-14.373 25.699-14.373 46.26v288.732h81.791v-264.78c0-8.234 1.723-14.123 5.141-17.814 3.445-3.645 8.982-5.49 16.643-5.49 6.037 0 13.648 2.445 22.801 7.285 9.207 4.84 17.641 11.029 25.301 18.564v262.234h81.77zM843.36 246.277c4.016-4.49 6.012-11.926 6.012-22.307v-21.508h-50.945v21.508c0 10.381 1.996 17.816 5.988 22.307 3.992 4.441 10.578 6.736 19.758 6.736 8.781 0 15.172-2.295 19.188-6.736zM601.71 84.345c-4.418 1.748-8.982 4.641-13.676 8.732v150.805c3.918 3.393 7.885 5.938 11.9 7.584 4.020 1.598 8.086 2.396 12.205 2.396 7.785 0 13.795-2.146 17.914-6.488 4.090-4.342 6.135-10.68 6.135-19.063v-124.355c0-7.885-1.646-13.623-4.988-17.066-3.344-3.492-8.482-5.189-15.568-5.189-4.891 0-9.533 0.848-13.922 2.645zM980.992 347.626c4.539-47.355 6.508-94.762 6.309-142.17 0.199-47.406-1.77-94.812-6.309-142.221 0-59.832-61.508-108.383-137.309-108.383-108.135-3.594-218.792-5.193-331.684-5.043-112.854-0.15-223.512 1.449-331.686 5.043-75.762 0-137.266 48.551-137.266 108.383-4.555 47.408-6.525 94.814-6.352 142.221-0.176 47.408 1.797 94.814 6.352 142.17 0 59.885 61.504 108.438 137.266 108.438 108.174 3.646 218.832 5.242 331.686 5.043 112.893 0.197 223.548-1.398 331.684-5.043 75.801 0 137.309-48.557 137.309-108.438zM242.502 45.87v283.642h67.205v52.293h-199.344v-52.293h67.193v-287.236h64.945v3.594zM473.536 290.14v3.545h-57.66v-188.131c-5.43-5.391-11.367-9.83-17.828-13.324-6.488-3.443-11.842-5.189-16.096-5.189-5.4 0-9.316 1.297-11.752 3.941-2.404 2.596-3.604 6.887-3.604 12.727v189.977h-57.688v-210.687c0-14.771 3.381-25.85 10.156-33.232 6.762-7.336 16.805-11.031 30.129-11.031 10.828 0 21.982 2.646 33.496 7.885 11.488 5.289 22.531 12.926 33.186 23.053v-27.395h57.66v247.864zM695.55 231.107v3.59c0 20.262-4.816 35.682-14.422 46.26-9.605 10.58-23.578 15.869-41.793 15.869-8.928 0-17.787-1.996-26.547-5.938-8.732-3.893-16.965-9.631-24.752-17.217v108.137h-58.209v-339.529h58.209v19.064c7.586-7.537 15.795-13.127 24.65-16.77 8.836-3.594 18.863-5.389 30.141-5.389 17.066 0 30.141 4.689 39.176 13.971 9.029 9.383 13.547 22.855 13.547 40.471v137.481zM908.73 223.521l0.002 3.541c0 23.504-7.109 41.568-21.23 54.096-14.176 12.525-34.434 18.813-60.832 18.813-25.799 0-46.885-6.785-63.176-20.311-16.27-13.574-24.426-31.090-24.426-52.598v-114.822c0-23.805 7.434-42.568 22.254-56.191 14.848-13.623 35.156-20.459 60.98-20.459 28.717 0 50.299 6.387 64.75 19.264 14.469 12.873 21.68 31.986 21.68 57.387v22.205h-59.361v-17.215c0-14.572-1.895-24.004-5.688-28.246-3.816-4.291-10.527-6.438-20.086-6.438-9.18 0-15.668 2.543-19.484 7.586-3.793 5.039-5.688 14.072-5.688 27.098v43.162h110.305v63.129z" />
<glyph unicode="&#xe022;" glyph-name="wordpress" d="M1.025 460.826c0 74.055 15.918 144.416 44.264 207.944l243.748-667.818c-170.49 82.814-288.012 257.622-288.012 459.876zM856.952 486.598c0-43.713-12.975-98.781-38.879-165.199l-50.975-170.268-184.664 549.276c30.74 1.596 58.461 4.84 58.461 4.84 27.545 3.27 24.301 43.738-3.244 42.092 0 0-82.764-6.486-136.184-6.486-50.227 0-134.586 6.486-134.586 6.486-27.547 1.648-30.768-40.443-3.244-42.092 0 0 26.049-3.244 53.596-4.84l79.594-218.124-111.807-335.372-186.084 553.494c30.791 1.596 58.486 4.84 58.486 4.84 27.521 3.27 24.252 43.738-3.268 42.092 0 0-82.762-6.486-136.209-6.486-9.582 0-20.883 0.25-32.885 0.648 91.371 138.703 248.414 230.298 426.94 230.298 133.043 0 254.178-50.875 345.052-134.162-2.172 0.125-4.318 0.398-6.615 0.398-50.176 0-85.781-43.715-85.781-90.699 0-42.092 24.277-77.721 50.176-119.84 19.438-34.008 42.119-77.723 42.119-140.898zM520.982 416.138l157.070-430.31c1.021-2.543 2.293-4.863 3.641-7.059-53.096-18.689-110.158-28.969-169.693-28.969-50.127 0-98.557 7.361-144.342 20.809zM960.398 705.946c39.871-72.758 62.576-156.295 62.576-245.122 0-188.531-102.148-353.084-254.052-441.662l156.070 451.242c29.117 72.859 38.85 131.17 38.85 183.018 0 18.789-1.248 36.256-3.443 52.523z" />
<glyph unicode="&#xe023;" glyph-name="android" d="M241.212 634.8h541.574v-441.326c0-26.219-21.256-47.475-47.441-47.475h-54.246v-134.404c0-34.133-27.223-61.795-60.83-61.795-33.691 0-60.875 27.662-60.875 61.795v134.404h-94.742v-134.404c0-34.133-27.277-61.795-60.883-61.795-33.598 0-60.873 27.662-60.873 61.795v134.404h-54.199c-26.191 0-47.486 21.256-47.486 47.475zM135.082 638.402c33.953 0 61.445-27.926 61.445-62.4v-243.874c0-34.434-27.492-62.408-61.445-62.408-33.947 0-61.445 27.975-61.445 62.408v243.874c0 34.475 27.498 62.4 61.445 62.4zM782.79 679.272h-541.576c6.684 77.156 56.732 143.551 128.783 181.996l-51.492 75.607c-6.943 10.195-4.324 24.107 5.893 31.049 10.203 6.943 24.088 4.303 31.066-5.885l56.121-82.465c31.115 10.76 64.893 16.939 100.416 16.939 35.566 0 69.344-6.18 100.457-16.953l56.123 82.449c6.893 10.215 20.82 12.855 31.023 5.914 10.217-6.943 12.836-20.855 5.893-31.051l-51.449-75.607c72.047-38.42 122.062-104.816 128.742-181.994zM427.73 784.11c0 16.545-13.398 29.965-29.938 29.965-16.582 0-29.98-13.42-29.98-29.965 0-16.539 13.441-29.953 29.98-29.953 16.537 0 29.938 13.414 29.938 29.953zM659.984 784.11c0 16.545-13.445 29.965-29.98 29.965-16.582 0-29.939-13.42-29.939-29.965 0-16.539 13.357-29.953 29.939-29.953 16.539 0 29.98 13.414 29.98 29.953zM888.96 638.488c33.955 0 61.402-27.967 61.4-62.443v-243.96c0-34.477-27.445-62.451-61.4-62.451-33.912 0-61.488 27.977-61.488 62.451v243.96c0 34.477 27.576 62.443 61.488 62.443z" />
<glyph unicode="&#xe0f8;" glyph-name="cloud" d="M826 510.667q82-6 140-67t58-145q0-88-63-151t-151-63h-554q-106 0-181 75t-75 181q0 98 66 171t162 83q42 78 118 126t166 48q116 0 204-73t110-185z" />
<glyph unicode="&#xe29b;" glyph-name="help" d="M642 458.667q40 40 40 96 0 70-50 120t-120 50-120-50-50-120h84q0 34 26 60t60 26 60-26 26-60-26-60l-52-54q-50-54-50-120v-22h84q0 66 50 120zM554 128.667v84h-84v-84h84zM512 852.667q176 0 301-125t125-301-125-301-301-125-301 125-125 301 125 301 301 125z" />
<glyph unicode="&#xe600;" glyph-name="book" d="M870.4 668.16v-529.971c0-26.726-23.142-39.475-51.2-59.392-22.528-16.026-51.2 3.84-51.2 30.054 0 0 0 507.136 0 517.837 0 10.803-3.789 21.094-16.077 27.392s-396.186 208.128-396.186 208.128c-6.195 2.304-33.229 19.354-69.274 0.819-34.253-17.613-52.89-36.762-57.651-45.773l418.816-229.478c11.11-5.837 17.971-14.848 17.971-26.419v-553.062c0-11.776-7.27-24.371-18.893-29.952-5.325-2.662-11.213-3.942-17.050-3.942-6.912 0-13.875 1.69-19.763 5.325-11.008 6.707-398.029 244.019-423.578 259.43-12.288 7.373-26.675 22.477-26.982 33.69l-5.734 526.643c0 10.138-1.178 28.006 14.797 52.838 35.686 55.501 160.205 118.63 223.232 85.914l460.749-233.216c11.11-5.734 18.022-17.203 18.022-36.864z" />
</font>
</defs>
</svg>
